<?xml version="1.0" encoding="UTF-8" standalone="no"?>
<!-- Created with Inkscape (http://www.inkscape.org/) -->

<svg
   xmlns:dc="http://purl.org/dc/elements/1.1/"
   xmlns:cc="http://creativecommons.org/ns#"
   xmlns:rdf="http://www.w3.org/1999/02/22-rdf-syntax-ns#"
   xmlns:svg="http://www.w3.org/2000/svg"
   xmlns="http://www.w3.org/2000/svg"
   xmlns:sodipodi="http://sodipodi.sourceforge.net/DTD/sodipodi-0.dtd"
   xmlns:inkscape="http://www.inkscape.org/namespaces/inkscape"
   width="124.91267mm"
   height="278.62875mm"
   viewBox="0 0 124.91267 278.62875"
   version="1.1"
   id="svg8"
   inkscape:version="0.92.2 (5c3e80d, 2017-08-06)"
   sodipodi:docname="clock.svg"
   inkscape:export-filename="C:\Projects\Javascript\BrassBand\img\clock_svg.png"
   inkscape:export-xdpi="96"
   inkscape:export-ydpi="96">
  <defs
     id="defs2">
    <clipPath
       clipPathUnits="userSpaceOnUse"
       id="clipPath4266">
      <g
         id="g4274"
         transform="translate(0.19481892,-7.053922)">
        <rect
           y="87.092499"
           x="216.44798"
           height="35.592243"
           width="21.993345"
           id="rect4268"
           style="fill:#000000;fill-opacity:1;stroke-width:0.26458332" />
        <rect
           y="87.114738"
           x="283.31534"
           height="35.592243"
           width="21.993347"
           id="rect4270"
           style="display:inline;fill:#000000;fill-opacity:1;stroke-width:0.26458332" />
        <rect
           y="13.266161"
           x="252.5041"
           height="73.898651"
           width="21.993349"
           id="rect4272"
           style="display:inline;fill:#000000;fill-opacity:1;stroke-width:0.381244" />
      </g>
    </clipPath>
  </defs>
  <sodipodi:namedview
     id="base"
     pagecolor="#ffffff"
     bordercolor="#666666"
     borderopacity="1.0"
     inkscape:pageopacity="0.0"
     inkscape:pageshadow="2"
     inkscape:zoom="0.70710678"
     inkscape:cx="18.418128"
     inkscape:cy="581.74791"
     inkscape:document-units="mm"
     inkscape:current-layer="g4281"
     showgrid="false"
     inkscape:window-width="1920"
     inkscape:window-height="1017"
     inkscape:window-x="1358"
     inkscape:window-y="-8"
     inkscape:window-maximized="1"
     showguides="false"
     inkscape:pagecheckerboard="true"
     fit-margin-top="0"
     fit-margin-left="0"
     fit-margin-right="0"
     fit-margin-bottom="0" />
  <metadata
     id="metadata5">
    <rdf:RDF>
      <cc:Work
         rdf:about="">
        <dc:format>image/svg+xml</dc:format>
        <dc:type
           rdf:resource="http://purl.org/dc/dcmitype/StillImage" />
        <dc:title></dc:title>
      </cc:Work>
    </rdf:RDF>
  </metadata>
  <g
     inkscape:groupmode="layer"
     id="layer2"
     inkscape:label="Layer 2"
     style="display:inline"
     transform="translate(-39.158334,-6.7295654)">
    <g
       style="display:inline;fill:#ffffff"
       id="g4036"
       transform="translate(-196.88215,-17.717471)">
      <g
         id="g4281"
         transform="translate(37.661624,9.3122644)"
         style="display:inline;fill:#000000">
        <g
           id="g4299"
           style="fill:#ffffff"
           inkscape:export-xdpi="96"
           inkscape:export-ydpi="96">
          <path
             style="fill:#ffffff;stroke-width:0.29391214"
             d="m 201.33664,263.34357 v -23.65993 h -1.32261 -1.3226 v -1.91042 -1.91043 h 1.46956 1.46956 v -3.61055 c 0,-3.02436 0.1628,-4.34851 1.00274,-8.15606 3.72065,-16.86615 7.2268,-37.62777 7.2268,-42.79338 0,-1.7358 -0.0846,-1.64849 2.83062,-2.92156 5.15147,-2.24964 10.19808,-6.70044 12.40311,-10.9388 2.28189,-4.38608 2.47271,-5.60417 2.62244,-16.7407 0.11033,-8.20555 0.19863,-9.77258 0.55066,-9.77258 0.34774,0 0.40539,-0.73675 0.33793,-4.31903 l -0.0813,-4.31902 -1.69,0.0786 -1.68999,0.0786 v -1.91771 -1.91771 l 1.83695,-0.0875 1.83695,-0.0875 0.78884,-5.73128 c 1.0227,-7.4304 1.02593,-7.64172 0.11693,-7.64172 -0.39091,0 -0.92558,-0.0824 -1.18817,-0.1832 -0.52368,-0.20096 -1.42931,-1.83604 -1.74631,-3.15291 -0.25418,-1.05589 0.28876,-2.7493 1.00423,-3.13221 0.80516,-0.43091 2.12653,-0.35453 2.86951,0.16587 0.57046,0.39957 0.65322,0.40199 0.65322,0.0191 0,-0.24112 -0.14099,-0.80922 -0.3133,-1.26245 -0.17232,-0.45323 -0.32017,-1.32153 -0.32856,-1.92956 -0.0145,-1.05239 -0.062,-1.10552 -0.98831,-1.10552 -1.35122,0 -1.98518,-0.71151 -1.81008,-2.0315 0.0985,-0.74241 -0.0839,-1.53308 -0.61619,-2.67109 -0.52761,-1.12807 -0.76166,-2.13426 -0.77459,-3.33 -0.0172,-1.58705 0.055,-1.77925 0.97821,-2.60469 0.90467,-0.80888 1.1422,-0.87913 2.57173,-0.76058 1.50138,0.1245 1.575,0.0978 1.575,-0.57222 0,-0.38656 -0.12032,-0.62847 -0.26739,-0.53757 -0.41039,0.25363 -1.20217,-0.14344 -1.20217,-0.60288 0,-0.23794 0.29996,-0.40942 0.71616,-0.40942 0.59314,0 0.73198,-0.16409 0.80826,-0.95522 0.11937,-1.23808 0.91045,-1.28999 1.1198,-0.0735 0.11003,0.63945 0.33765,0.90816 0.82832,0.97791 0.84249,0.11975 0.75593,1.07948 -0.0974,1.07948 -0.42136,0 -0.60939,0.23018 -0.67813,0.83017 -0.0859,0.74988 -0.038,0.79963 0.49502,0.51435 0.32458,-0.17371 1.13806,-0.31583 1.80772,-0.31583 0.95387,0 1.40366,0.18608 2.07671,0.85913 0.75659,0.75659 0.85913,1.06736 0.85913,2.60379 0,1.33505 -0.19731,2.13583 -0.84041,3.41079 -0.46223,0.91637 -0.72675,1.73638 -0.58783,1.82224 0.42287,0.26134 0.28193,1.81356 -0.20927,2.30476 -0.26388,0.26388 -0.95923,0.46186 -1.62212,0.46186 -1.05568,0 -1.14553,0.0596 -0.99692,0.66131 0.0898,0.36371 -0.0351,1.31643 -0.27754,2.11714 -0.24247,0.80072 -0.39091,1.5058 -0.32985,1.56686 0.061,0.061 0.37815,-0.032 0.70467,-0.20672 0.32652,-0.17475 1.06723,-0.31773 1.64601,-0.31773 2.10199,0 2.78775,2.74861 1.31083,5.25398 -0.75721,1.2845 -0.56933,1.42842 0.59059,0.45242 1.34552,-1.13219 1.90456,-2.42436 3.24546,-7.50151 2.04704,-7.75089 3.82058,-10.36542 9.5919,-14.14023 4.42644,-2.89517 6.46891,-5.62004 7.65038,-10.20641 0.51916,-2.01531 0.54242,-2.04696 1.56768,-2.13322 0.94093,-0.0792 1.0407,-0.17208 1.0407,-0.96929 0,-0.71747 -0.13689,-0.90067 -0.73478,-0.98338 -1.0129,-0.14011 -1.46956,-0.57863 -1.46956,-1.41118 0,-0.4827 0.23245,-0.79444 0.73478,-0.98543 l 0.73478,-0.27936 v -5.17826 c 0,-4.931066 -0.0281,-5.185582 -0.58783,-5.331965 -0.48659,-0.127247 -0.58782,-0.400902 -0.58782,-1.589001 0,-1.244792 0.0789,-1.435282 0.5946,-1.435282 0.56735,0 0.57244,-0.03381 0.1111,-0.737911 -0.44984,-0.68654 -0.44719,-0.926954 0.038,-3.453467 0.28684,-1.493556 0.69976,-2.821325 0.91759,-2.950596 0.50257,-0.298248 0.58786,-13.278649 0.0893,-13.586789 -0.57041,-0.352533 -1.16278,0.504359 -1.16278,1.682012 0,0.934453 -0.0975,1.142431 -0.49938,1.065038 -0.39354,-0.07579 -0.4922,-0.396708 -0.4655,-1.51423 0.0386,-1.616364 0.67917,-2.547469 1.7525,-2.547469 h 0.69651 l -0.0808,-4.776072 -0.0808,-4.776073 -0.80837,-0.09301 c -1.18359,-0.136183 -1.60661,-1.177626 -1.42467,-3.507413 0.0158,-0.202064 0.22709,-0.36739 0.46956,-0.36739 0.29117,0 0.44087,0.291242 0.44087,0.857698 0,1.243182 0.27997,1.787512 0.9194,1.787512 0.53788,0 0.55909,-0.254967 0.4829,-5.804766 l -0.0797,-5.804765 -1.50317,-0.151356 c -2.25561,-0.227121 -2.41608,-0.433131 -2.91562,-3.74298 l -0.18852,-1.249126 h 2.37713 2.37713 v -2.057344 c 0,-1.632846 0.091,-2.057385 0.44087,-2.057385 0.3499,0 0.44087,0.424539 0.44087,2.057385 v 2.057385 h 2.3513 c 2.65359,0 2.5952,-0.07422 2.07256,2.634542 -0.33296,1.725676 -1.13759,2.361964 -2.98686,2.361964 h -1.437 v 6.459854 6.459855 l 5.80476,0.07969 5.80477,0.07969 0.0805,4.916792 0.0806,4.916792 -5.81184,0.07972 -5.81185,0.07972 -0.0788,7.164564 c -0.0642,5.836293 -0.003,7.22578 0.33014,7.49476 0.43387,0.350349 1.12985,3.500323 1.12997,5.114215 4e-5,0.529742 -0.16161,1.157979 -0.35922,1.396083 -0.29724,0.358159 -0.25156,0.432921 0.26452,0.432921 0.55263,0 0.62381,0.167683 0.62381,1.469561 0,1.273618 -0.0784,1.469561 -0.58782,1.469561 -0.56591,0 -0.58782,0.195942 -0.58782,5.256616 v 5.25661 l 0.73478,0.48145 c 0.40413,0.2648 0.73478,0.65151 0.73478,0.85936 0,0.65243 -0.7053,1.35675 -1.46956,1.46754 -0.58088,0.0842 -0.75408,0.30083 -0.82689,1.03419 -0.089,0.89676 -0.0543,0.92766 1.04337,0.92766 h 1.13547 l 0.3493,1.69117 c 0.50411,2.44066 2.1742,5.71989 3.7963,7.45404 0.77281,0.8262 2.66255,2.33212 4.19941,3.3465 5.43798,3.58923 7.34668,6.40594 9.2609,13.66648 1.37672,5.22187 1.83501,6.37158 3.00694,7.54351 1.35028,1.35029 1.59328,1.22697 0.77341,-0.39248 -0.87415,-1.72668 -0.89749,-3.28714 -0.065,-4.34549 0.54256,-0.68976 0.79702,-0.7836 1.83695,-0.67745 0.66392,0.0678 1.42877,0.22223 1.69966,0.34324 0.45415,0.20288 0.45988,0.11153 0.0735,-1.17237 -0.23047,-0.76581 -0.41905,-1.76815 -0.41905,-2.22741 0,-0.77745 -0.0806,-0.83503 -1.16887,-0.83503 -0.9275,0 -1.26992,-0.15422 -1.65821,-0.74682 -0.39962,-0.6099 -0.42649,-0.88474 -0.14657,-1.4991 0.29283,-0.64269 0.22531,-0.99236 -0.46338,-2.4 -0.59406,-1.21421 -0.80859,-2.10186 -0.81542,-3.37393 -0.009,-1.59776 0.0652,-1.79283 0.99163,-2.62116 0.93617,-0.83704 1.11309,-0.88474 2.73568,-0.73761 1.64966,0.14958 1.73034,0.12615 1.64431,-0.47767 -0.0498,-0.34924 -0.28886,-0.64789 -0.53134,-0.66369 -1.05684,-0.0688 -1.21791,-0.13843 -1.10487,-0.47752 0.0659,-0.19761 0.44032,-0.43496 0.83213,-0.52746 0.50305,-0.11875 0.75659,-0.4234 0.86283,-1.0368 0.18167,-1.04882 0.69575,-1.03557 0.82719,0.0213 0.0521,0.41871 0.28353,0.8196 0.51434,0.89088 1.40358,0.43343 1.38127,0.41401 1.00139,0.87174 -0.20142,0.24269 -0.58003,0.40645 -0.84136,0.36391 -0.29477,-0.048 -0.50948,0.16369 -0.5656,0.55761 -0.0858,0.60253 -0.003,0.62721 1.61651,0.48308 1.446,-0.12867 1.82948,-0.0548 2.50816,0.48296 1.57657,1.24927 1.57258,4.21059 -0.009,6.89163 -0.37455,0.63481 -0.48897,1.12666 -0.32305,1.38863 0.76651,1.21022 -0.16727,2.60998 -1.74113,2.60998 -0.86267,0 -0.93207,0.0738 -0.93207,0.99174 0,0.54546 -0.19793,1.55272 -0.43983,2.23835 -0.43823,1.24208 -0.43743,1.24584 0.22043,1.035 2.66842,-0.85521 4.04026,-0.14688 4.04026,2.08612 0,2.46646 -1.19086,4.22963 -2.85672,4.22963 -0.95571,0 -0.98494,0.0338 -0.82576,0.95521 0.22557,1.30576 1.62509,11.85344 1.62509,12.24773 0,0.19447 0.74393,0.31702 1.92446,0.31702 h 1.92445 l -0.0875,1.83695 -0.0875,1.83695 -1.68999,0.0882 -1.69,0.0881 v 4.24706 c 0,3.43507 0.0783,4.24706 0.40959,4.24706 0.33953,0 0.4331,1.72188 0.54705,10.06649 0.15376,11.25942 0.23182,11.80625 2.28386,15.99867 2.15247,4.39759 6.92964,8.70304 12.56391,11.32332 1.4108,0.6561 2.59385,1.21494 2.62899,1.24186 0.0352,0.0269 0.20821,1.62935 0.3846,3.56097 0.75457,8.26326 3.25729,22.86117 6.59354,38.45894 1.43229,6.69633 1.62838,8.0147 1.62838,10.94823 v 3.33515 h 1.46956 1.46956 v 1.91043 1.91042 h -1.32085 -1.32086 l -0.0752,23.58646 -0.0752,23.58645 h -14.98952 -14.98952 l -0.14696,-17.78169 -0.14695,-17.78169 -0.94364,-2.4493 c -2.69469,-6.99436 -6.71192,-11.4533 -13.16415,-14.61161 -1.77817,-0.8704 -4.55564,-1.9428 -6.17215,-2.3831 -2.74034,-0.74641 -3.34663,-0.80157 -8.96432,-0.81562 -6.64422,-0.0166 -8.8004,0.33437 -13.42161,2.18479 -4.61765,1.849 -9.03805,5.17957 -11.71569,8.82725 -1.52781,2.08129 -3.24009,5.6918 -4.08764,8.61917 l -0.7541,2.60461 v 16.86707 16.86707 h -14.98972 -14.98952 z m 8.65357,18.93439 c 1.36998,-0.64397 2.44795,-1.59527 4.06228,-3.58494 1.32563,-1.63385 2.54011,-2.00209 4.12405,-1.25046 0.76778,0.36434 1.17746,0.85172 1.6288,1.93778 0.58103,1.39812 0.64608,1.45101 1.78461,1.45101 1.54976,0 2.01413,-0.73845 1.51404,-2.40762 -0.42214,-1.40897 -0.21197,-2.16907 0.93347,-3.37601 1.00826,-1.06239 0.96736,-2.18487 -0.10043,-2.75634 -0.95842,-0.51292 -1.91684,-0.0887 -2.81596,1.24647 -1.5343,2.27838 -3.90374,2.03674 -5.14657,-0.52485 -1.24189,-2.55962 -2.65668,-2.30808 -4.19458,0.74579 -0.77765,1.5442 -1.22928,2.11284 -1.78983,2.25353 -1.3093,0.32861 -2.81944,-0.10504 -3.85245,-1.10627 l -0.98014,-0.94999 v 4.65125 4.65126 l 1.80858,-0.20462 c 0.99472,-0.11254 2.35558,-0.46173 3.02413,-0.77599 z m 17.65157,-10.99236 v -11.75008 l -1.61652,-0.79603 c -0.88909,-0.43782 -1.75527,-0.80442 -1.92486,-0.81466 -0.16959,-0.0103 -0.48742,0.47735 -0.70627,1.08354 -0.21886,0.60619 -1.17125,1.85937 -2.11643,2.78484 -1.685,1.64986 -1.71851,1.71433 -1.71851,3.30651 0,1.90249 -0.55705,2.65681 -2.18794,2.96276 -2.73579,0.51324 -4.27813,-0.66825 -4.27813,-3.27721 0,-1.49713 -0.0633,-1.62429 -1.45722,-2.92816 -0.80148,-0.74969 -1.74205,-1.95144 -2.09017,-2.67055 -0.34812,-0.71912 -0.72116,-1.26832 -0.82899,-1.22045 -0.10782,0.0479 -0.95276,0.40897 -1.87764,0.80243 l -1.6816,0.71539 v 6.37118 6.37117 l 1.2881,1.38321 c 1.16349,1.24939 1.39807,1.37419 2.42478,1.28993 1.04875,-0.0861 1.1935,-0.21124 1.87145,-1.61846 1.08546,-2.25311 1.93057,-3.03045 3.29461,-3.03045 1.48956,0 2.42733,0.65063 2.99975,2.08124 0.27011,0.67508 0.77649,1.30604 1.20476,1.50117 0.6862,0.31265 0.84918,0.21802 2.28891,-1.32898 1.81048,-1.94538 2.80525,-2.16009 4.27559,-0.92288 1.55292,1.30669 1.48839,2.92623 -0.17889,4.48927 -0.55251,0.51797 -0.67923,0.8621 -0.54113,1.46956 0.5855,2.5754 0.57912,2.64 -0.35262,3.57173 -1.24714,1.24714 -2.97044,1.26203 -4.19623,0.0362 -0.47252,-0.47252 -0.85912,-1.12633 -0.85912,-1.4529 0,-0.32657 -0.29396,-0.79966 -0.65323,-1.0513 -1.03128,-0.72234 -1.97184,-0.56367 -2.83409,0.4781 -0.42593,0.5146 -1.48305,1.64093 -2.34917,2.50296 l -1.57476,1.56732 8.18778,-0.0782 8.18779,-0.0782 z m 80.80092,9.39879 c -2.56574,-2.62416 -3.39483,-3.00532 -4.31531,-1.98391 -0.25494,0.28289 -0.55482,0.88016 -0.66641,1.32726 -0.43644,1.74869 -2.67933,2.50342 -4.55585,1.53304 -1.20167,-0.62141 -1.46937,-2.08343 -0.73079,-3.9911 0.11418,-0.2949 -0.20606,-0.93371 -0.86115,-1.7178 -1.47619,-1.76688 -1.27975,-3.69027 0.46926,-4.59472 1.62348,-0.83954 3.26891,-0.19891 4.22175,1.64368 0.23747,0.45923 0.70422,0.92143 1.03721,1.02712 0.79591,0.25261 2.04622,-0.57566 2.04622,-1.35554 0,-0.33201 0.3866,-0.99026 0.85913,-1.46278 0.65897,-0.65898 1.12904,-0.85913 2.01774,-0.85913 1.53986,0 2.37659,0.70953 3.42602,2.90519 0.82173,1.71926 0.9061,1.7974 1.94047,1.7974 0.9172,0 1.28831,-0.22121 2.44421,-1.45697 l 1.36282,-1.45697 v -6.18051 -6.18052 l -1.75509,-0.88596 c -0.9653,-0.48729 -1.86455,-0.88597 -1.99834,-0.88597 -0.13379,0 -0.42037,0.48983 -0.63686,1.08852 -0.21649,0.59868 -1.10275,1.79765 -1.96947,2.66437 -1.42436,1.42436 -1.57586,1.69933 -1.57586,2.86017 0,1.77179 -0.40899,2.68455 -1.44234,3.21892 -1.79912,0.93036 -4.46921,0.29693 -5.03636,-1.19479 -0.1547,-0.4069 -0.28128,-1.34278 -0.28128,-2.07973 0,-1.22167 -0.11793,-1.44369 -1.33652,-2.51634 -0.73508,-0.64705 -1.66314,-1.821 -2.06234,-2.60878 -0.3992,-0.78779 -0.781,-1.43234 -0.84845,-1.43234 -0.0674,0 -0.92491,0.34794 -1.90548,0.7732 l -1.78284,0.7732 v 11.86502 11.86502 h 8.18928 8.18927 z m 8.69532,-2.11237 v -4.61063 l -0.80825,0.75386 c -1.1519,1.07437 -1.92966,1.4135 -3.24164,1.4135 -1.35635,0 -1.76503,-0.38469 -2.84548,-2.67852 -1.3337,-2.83145 -3.01443,-2.89104 -4.22698,-0.14987 -0.44146,0.998 -0.80377,1.36923 -1.58933,1.62849 -1.37677,0.45437 -2.2057,0.0906 -3.56003,-1.56214 -1.18877,-1.45075 -1.97579,-1.68724 -2.88291,-0.86631 -0.77638,0.70262 -0.66419,1.49602 0.37965,2.68489 0.88322,1.00593 0.90999,1.11448 0.72355,2.93426 -0.22572,2.20312 0.0436,2.7118 1.43582,2.7118 1.06224,0 1.74336,-0.61777 2.03537,-1.84607 0.21672,-0.91163 1.7021,-1.97196 2.76487,-1.97369 1.12383,-0.002 2.28484,0.78305 3.35198,2.26604 1.72616,2.39884 4.44279,3.83265 7.36121,3.88518 l 1.10217,0.0198 z m -99.32298,-11.8588 c 0.43021,-0.23024 0.5685,-0.61975 0.5685,-1.60118 v -1.29694 l -1.75317,0.008 c -0.96424,0.005 -1.89006,-0.0762 -2.05738,-0.17963 -0.5123,-0.31662 -0.36586,2.38825 0.15765,2.91175 0.52477,0.52478 2.23506,0.61217 3.0844,0.15761 z m 89.67422,-0.18217 c 0.34318,-0.31057 0.53749,-0.89496 0.53749,-1.61651 v -1.1301 h -2.20434 -2.20434 v 1.07903 c 0,0.59346 0.21888,1.3209 0.48642,1.61652 0.62624,0.69199 2.64293,0.72241 3.38477,0.0511 z m -88.51789,-4.37818 c 0.40413,-0.20755 1.22423,-0.88424 1.82244,-1.50376 5.02536,-5.2043 2.08056,-15.63575 -4.42323,-15.66859 -1.72437,-0.009 -3.03939,0.67108 -4.55141,2.35282 -4.3053,4.78852 -2.25167,13.93772 3.43134,15.28715 1.09709,0.2605 2.69384,0.0598 3.72086,-0.46762 z m 89.39158,-0.0156 c 1.27284,-0.64375 2.65185,-2.21208 3.46026,-3.93532 0.65271,-1.39136 0.75785,-2.00989 0.74973,-4.41048 -0.0107,-3.16323 -0.51199,-4.65139 -2.22343,-6.60061 -4.38794,-4.9976 -11.43404,-0.91873 -11.43404,6.61898 0,6.33057 4.88392,10.63547 9.44748,8.32743 z m -101.29484,-4.73645 c 1.07093,-0.52523 1.57703,-0.93657 1.47607,-1.19969 -0.0845,-0.22022 -0.15365,-1.11523 -0.15365,-1.98893 0,-1.52288 -0.0405,-1.60547 -0.98081,-1.99834 -2.43463,-1.01725 -2.25222,-1.22672 -2.25222,2.58645 0,1.86989 0.0632,3.3998 0.14044,3.3998 0.0772,0 0.87382,-0.35968 1.77017,-0.79929 z m 20.72062,-2.60051 c 0,-3.81317 0.1824,-3.6037 -2.25222,-2.58645 -0.87173,0.36423 -0.98081,0.53603 -0.98081,1.54477 0,0.62423 -0.0762,1.516 -0.16935,1.98169 -0.15685,0.78426 -0.0539,0.90491 1.39608,1.63538 0.86099,0.43375 1.66463,0.79669 1.78587,0.80653 0.12124,0.01 0.22043,-1.51203 0.22043,-3.38192 z m 68.56478,2.62966 c 0.8433,-0.42357 1.54073,-0.78729 1.54985,-0.80826 0.009,-0.0209 -0.057,-0.94484 -0.14695,-2.05305 l -0.16354,-2.01493 -1.46956,-0.55656 c -0.80826,-0.30611 -1.50263,-0.55667 -1.54304,-0.5568 -0.0404,-1.3e-4 -0.0735,1.52076 -0.0735,3.37975 0,1.859 0.0705,3.37999 0.15672,3.37999 0.0862,0 0.8467,-0.34656 1.69,-0.77014 z m 20.78451,-2.62966 c 0,-3.81666 0.18027,-3.61049 -2.27781,-2.60519 -0.84914,0.34728 -0.95522,0.51881 -0.95522,1.54457 0,0.63465 -0.0797,1.55232 -0.17707,2.03928 -0.16726,0.83627 -0.0898,0.92659 1.39608,1.62876 0.86524,0.40886 1.67235,0.75441 1.79359,0.76788 0.12124,0.0135 0.22043,-1.50541 0.22043,-3.3753 z m -108.45358,-4.06536 c 0,-0.85757 1.86681,-4.02236 2.94979,-5.00077 0.64074,-0.57888 1.16498,-1.15198 1.16498,-1.27356 0,-0.12159 -0.42984,-1.24442 -0.95521,-2.49518 l -0.95522,-2.27412 -2.86564,-0.004 -2.86564,-0.004 v 5.21898 5.21897 l 1.54304,0.61205 c 1.6041,0.63627 1.9839,0.63652 1.9839,0.001 z m 19.10429,-5.78787 v -5.26344 l -2.86564,0.004 -2.86565,0.004 -0.95521,2.27412 c -0.52537,1.25076 -0.95521,2.38873 -0.95521,2.52881 0,0.14008 0.53929,0.77805 1.19843,1.41772 1.08602,1.05395 2.91553,4.27963 2.9161,5.1415 1.7e-4,0.24075 0.54414,0.16444 1.76371,-0.24742 l 1.76347,-0.59553 v -5.26344 z m 70.245,5.95217 c 0,-1.03631 1.80987,-4.15562 3.00441,-5.1781 l 1.20076,-1.02781 -1.02471,-2.43137 -1.02471,-2.43137 -2.84135,-0.0841 -2.84134,-0.0841 v 5.26424 5.26425 l 1.54304,0.59178 c 1.97495,0.75744 1.9839,0.75796 1.9839,0.11662 z m 19.10429,-5.98379 v -5.23182 h -2.8967 -2.8967 l -1.02049,2.41969 -1.0205,2.41968 1.35616,1.3277 c 1.28864,1.26159 2.40725,3.16788 2.81707,4.80076 l 0.18718,0.74576 1.73699,-0.62498 1.73699,-0.62498 z m -84.28265,-1.9253 c 4.9727,-8.54783 14.56938,-13.80132 26.25566,-14.3731 13.54445,-0.66269 24.9491,4.90499 30.50864,14.89414 l 1.05953,1.90373 0.003,-10.21485 0.003,-10.21486 -29.61165,0.0749 -29.61165,0.0749 -0.0773,10.06649 c -0.0425,5.53657 -0.0273,10.0665 0.0338,10.0665 0.0611,0 0.70746,-1.02502 1.43627,-2.27782 z m -12.97591,-1.06566 c 0.47046,-1.10281 0.85538,-2.05816 0.85538,-2.12298 0,-0.0648 -1.91778,-0.11788 -4.26173,-0.11788 -2.34395,0 -4.26172,0.0552 -4.26172,0.12259 0,0.0674 0.27723,0.7618 0.61607,1.54304 0.33884,0.78125 0.71979,1.68497 0.84656,2.00828 0.20628,0.5261 0.49928,0.58699 2.79027,0.57995 l 2.55978,-0.008 0.85539,-2.00512 z m 88.85554,0.99218 c 0.2309,-0.56578 0.63069,-1.52467 0.88842,-2.13086 l 0.4686,-1.10218 h -4.38703 -4.38703 l 0.9138,2.1314 0.91379,2.1314 2.58482,-5.8e-4 2.58482,-5.9e-4 0.41981,-1.02869 z m -81.01412,-13.7404 0.0791,-6.53954 -1.84258,0.004 c -2.19168,0.005 -3.19797,0.44608 -3.59508,1.57527 -0.26344,0.74907 -0.19589,0.91013 0.6753,1.61026 2.62872,2.11259 2.98764,2.57599 2.98764,3.85725 0,0.96499 -0.18381,1.41146 -0.85913,2.08677 -1.09214,1.09214 -1.76864,1.08041 -3.77128,-0.0654 -1.40388,-0.80323 -1.75556,-0.88999 -2.68051,-0.66131 -0.89691,0.22175 -1.12461,0.44841 -1.44548,1.43886 -0.55344,1.70838 -1.52067,2.56564 -2.93663,2.60277 -1.66506,0.0437 -2.6126,-0.56811 -3.17965,-2.0529 -0.5429,-1.42156 -1.12319,-1.74012 -2.33235,-1.2804 -1.2666,0.48156 -3.26922,0.42253 -4.09846,-0.12081 -0.57315,-0.37552 -0.73992,-0.73352 -0.73992,-1.58828 0,-1.55777 0.5915,-2.22533 2.63054,-2.9688 1.52598,-0.5564 1.77814,-0.75224 1.77814,-1.381 0,-0.52295 -0.26812,-0.87597 -0.9367,-1.23334 -2.61089,-1.39555 -2.90529,-2.64534 -1.08763,-4.61726 0.96827,-1.05045 1.17201,-1.45751 1.02421,-2.04635 -0.1918,-0.7642 -1.48598,-1.34176 -1.91529,-0.85474 -0.12495,0.14173 -0.77656,2.85253 -1.44804,6.02399 -1.04825,4.95096 -1.22088,6.27089 -1.22088,9.3349 v 3.56861 l 12.41779,-0.0767 12.41779,-0.0767 z m 91.67334,2.49826 c -0.12297,-3.42845 -0.35855,-5.11803 -1.29854,-9.31347 -1.19642,-5.33986 -1.56775,-6.10064 -2.64765,-5.42447 -0.28289,0.17713 -0.55825,0.69366 -0.6119,1.14785 -0.0757,0.64053 0.11057,0.98867 0.83014,1.55182 1.92418,1.50589 1.68461,3.59325 -0.52686,4.59048 -1.98643,0.89576 -1.89427,2.14596 0.20456,2.77478 1.77383,0.53146 2.9697,1.66141 2.9697,2.80601 0,1.96478 -1.42057,2.65667 -4.26172,2.07567 -2.05945,-0.42115 -2.66493,-0.20795 -2.9378,1.03443 -0.222,1.01074 -1.26724,1.9397 -2.48293,2.20671 -1.20283,0.26419 -2.88338,-0.51793 -3.27491,-1.52411 -0.72101,-1.85293 -1.05087,-2.28469 -1.94036,-2.53979 -0.78053,-0.22385 -1.17481,-0.12215 -2.52796,0.65204 -1.97124,1.12783 -2.59069,1.14447 -3.75859,0.10095 -0.68907,-0.61568 -0.92113,-1.08146 -0.94419,-1.89519 -0.0417,-1.47252 0.46584,-2.29799 2.01611,-3.27876 1.61505,-1.02176 1.98941,-1.6451 1.6012,-2.66617 -0.36696,-0.96518 -1.35379,-1.33658 -3.55139,-1.33658 h -1.74434 v 6.61302 6.61303 h 12.51882 12.51883 z m -104.39067,2.15433 c 0.33091,-0.12898 0.78052,-0.78079 1.0287,-1.49132 0.87899,-2.51653 3.47848,-3.2412 5.89358,-1.64296 1.46966,0.97257 2.52095,0.85494 2.81457,-0.31493 0.29752,-1.1854 -0.19477,-2.03589 -1.79318,-3.09793 -1.70559,-1.13325 -2.22334,-2.31765 -1.63454,-3.73914 0.56619,-1.36692 1.62068,-1.87595 4.19478,-2.02497 l 2.28127,-0.13206 v -21.73307 -21.73305 l -0.77442,0.60915 c -1.03588,0.81483 -1.74374,0.7703 -4.37574,-0.27524 -3.27305,-1.30019 -4.14605,-0.63116 -3.79712,2.90994 0.13236,1.34322 0.0819,2.21767 -0.15346,2.65737 -0.51701,0.96605 -1.94831,1.45912 -3.7083,1.27747 -1.34162,-0.13846 -1.56113,-0.0796 -1.99112,0.53434 -0.70272,1.00327 -0.60621,1.52874 0.56184,3.05896 1.90684,2.49809 1.9284,3.72787 0.0984,5.6159 l -0.89681,0.92528 0.47726,1.40576 c 0.55857,1.64523 0.39429,2.73214 -0.57025,3.77289 -0.87415,0.94323 -2.06403,1.2482 -3.1988,0.81987 -0.4862,-0.18351 -0.92752,-0.29015 -0.9807,-0.23696 -0.0823,0.0823 -2.17056,10.82775 -2.64358,13.60276 -0.14378,0.84344 -0.0776,0.94207 0.75403,1.12474 2.27828,0.50039 2.70681,3.07909 0.78284,4.71073 -1.28859,1.09279 -1.318,1.78901 -0.10299,2.43844 1.59618,0.85318 2.29633,1.70478 2.29633,2.79307 0,1.18845 -0.58071,1.78551 -2.34051,2.4064 -1.64899,0.58179 -2.06817,0.94519 -2.06817,1.79292 0,1.0199 0.91137,1.39078 2.4196,0.98466 2.69405,-0.72544 4.10746,-0.22868 4.58371,1.611 0.1317,0.50872 0.5484,1.06476 0.95078,1.2687 0.81136,0.41123 1.06233,0.42466 1.89196,0.10128 z m -2.54486,-3.41053 c -1.13637,-0.61722 -2.01077,-2.20126 -2.01077,-3.64264 0,-2.43038 1.52641,-4.03309 3.57891,-3.75779 2.39531,0.32128 2.53296,1.72973 0.14272,1.46031 -1.14128,-0.12864 -1.34028,-0.0516 -2.05188,0.79406 -1.03445,1.22937 -0.99411,1.8508 0.20506,3.15932 0.80072,0.87374 1.19234,1.07799 2.02179,1.05448 2.32997,-0.0661 3.68397,-2.01609 4.02838,-5.80175 0.1186,-1.30361 0.17028,-2.45552 0.11484,-2.55981 -0.0554,-0.10429 -0.62795,-0.0558 -1.27225,0.10773 -4.21663,1.0703 -7.37205,-2.20745 -7.40835,-7.69552 -0.0159,-2.405 0.36852,-4.1957 1.29555,-6.03481 0.63563,-1.26103 3.15757,-4.47431 4.56423,-5.81546 l 0.85723,-0.8173 -0.13576,-5.2079 c -0.15269,-5.85699 0.22072,-8.18821 1.60151,-9.99853 1.42565,-1.86912 4.2267,-2.42473 5.55046,-1.10096 0.64024,0.64023 0.72143,0.97449 0.72143,2.97017 0,4.36857 -1.48696,7.99192 -4.66465,11.36659 l -1.87248,1.98856 0.25596,2.55404 0.25597,2.55404 1.33691,0.33961 c 1.87609,0.47657 2.80129,1.1656 3.4982,2.60523 0.71151,1.46978 0.75254,2.88249 0.15706,5.40828 -0.53635,2.275 -1.10866,3.44269 -2.30507,4.70299 -0.818,0.86168 -0.95948,1.27666 -1.26521,3.71107 -0.36902,2.93841 -0.99305,4.48856 -2.49602,6.20034 -1.60885,1.83238 -3.13857,2.30578 -4.70377,1.45565 z m 5.62037,-10.41406 c 0.37503,-0.2372 0.34279,-1.05772 -0.25102,-6.38809 -0.37473,-3.36376 -0.73313,-6.17048 -0.79645,-6.23715 -0.0633,-0.0667 -0.44664,0.0298 -0.85182,0.21444 -1.77177,0.80727 -2.50923,3.91653 -1.29504,5.46012 0.62774,0.79804 0.5634,1.79422 -0.10177,1.57582 -0.20198,-0.0663 -0.66482,-0.55979 -1.02853,-1.0966 -1.40173,-2.06882 -0.41024,-5.52397 1.89977,-6.62038 1.19235,-0.56593 1.23758,-0.63709 1.21436,-1.91043 -0.0133,-0.72743 -0.10767,-1.70975 -0.20978,-2.18294 l -0.18567,-0.86033 -1.77922,1.94202 c -2.13019,2.32508 -3.2058,4.405 -3.67684,7.10994 -0.58239,3.34433 0.0744,6.4081 1.68615,7.86563 1.31346,1.18776 4.29291,1.81291 5.37586,1.12795 z m 3.70452,-4.24258 c 0.86682,-2.38804 0.97085,-5.38587 0.23041,-6.63934 -0.51696,-0.87513 -2.07802,-1.76905 -3.08933,-1.76905 -0.51266,0 -0.5885,0.13405 -0.45729,0.80826 0.0865,0.44454 0.37534,2.59377 0.64182,4.77607 0.79207,6.48631 0.68518,6.06761 1.37332,5.37946 0.32249,-0.32248 0.90797,-1.47242 1.30107,-2.5554 z m -0.30473,-21.19357 c 1.12643,-2.31484 2.05399,-6.44121 1.77828,-7.91088 -0.26555,-1.41548 -1.08586,-2.04951 -2.34586,-1.81313 -2.69039,0.50472 -4.06393,5.20578 -3.54465,12.13193 l 0.21563,2.87616 1.44773,-1.61335 c 0.79625,-0.88734 1.89824,-2.53917 2.44887,-3.67073 z m 87.54925,39.24767 c 0.45682,-0.17369 0.82111,-0.60066 0.94034,-1.10217 0.46605,-1.96019 1.6935,-2.53518 4.18381,-1.95986 2.19914,0.50805 3.07342,0.21569 2.92991,-0.97979 -0.0996,-0.82984 -0.25167,-0.94342 -2.49689,-1.86508 -2.67513,-1.09814 -2.71589,-3.15667 -0.0928,-4.68637 0.72725,-0.4241 1.36021,-0.96807 1.40657,-1.2088 0.0464,-0.24074 -0.44947,-0.98222 -1.10184,-1.64774 -0.91434,-0.93277 -1.18613,-1.43834 -1.18613,-2.20639 0,-1.20616 0.87244,-2.2369 2.10143,-2.48269 0.71245,-0.14249 0.8529,-0.29472 0.73478,-0.79642 -0.0803,-0.34113 -0.71152,-3.63322 -1.40269,-7.31574 -1.06294,-5.66339 -1.32692,-6.66504 -1.71248,-6.49797 -1.67563,0.72606 -3.25371,0.29654 -4.14223,-1.12743 -0.60065,-0.96263 -0.61728,-1.54298 -0.11454,-3.99691 0.17075,-0.83344 0.0682,-1.11414 -0.6978,-1.91043 -0.49388,-0.51339 -0.98582,-1.29013 -1.09319,-1.72609 -0.24685,-1.00219 0.28469,-2.64446 1.08752,-3.36006 2.17663,-1.94012 1.19131,-4.36942 -1.54987,-3.82118 -1.12384,0.22477 -2.75029,-0.43667 -3.21669,-1.30815 -0.22202,-0.41485 -0.29505,-1.31131 -0.19589,-2.40483 0.18555,-2.04621 -0.15272,-3.22906 -1.0627,-3.71607 -0.55362,-0.29629 -0.98252,-0.21156 -2.762,0.54568 -2.48293,1.05658 -3.25961,1.10843 -4.30352,0.28728 l -0.77442,-0.60915 v 21.77082 21.77083 h 1.77291 c 2.68757,0 4.36658,0.91107 4.77639,2.59177 0.29662,1.21653 -0.34375,2.33377 -1.87916,3.27851 -1.71816,1.0572 -2.19282,1.87941 -1.75292,3.03643 0.43802,1.15209 1.11461,1.29407 2.4645,0.51718 1.73786,-1.00019 2.80212,-1.22931 4.09414,-0.88141 1.15473,0.31094 2.27721,1.63209 2.27953,2.683 10e-4,0.52098 1.05143,1.41274 1.66388,1.41274 0.19598,0 0.6919,-0.12758 1.10204,-0.28351 z m -3.06757,-3.90473 c -2.23835,-1.13078 -3.51811,-3.88155 -3.51811,-7.56194 0,-1.8761 -0.0407,-1.98409 -1.15749,-3.07465 -1.77591,-1.73412 -2.46643,-3.61095 -2.49367,-6.77771 -0.0186,-2.16623 0.0866,-2.8313 0.58097,-3.6729 0.75302,-1.28186 2.15281,-2.24495 3.62418,-2.49354 l 1.12813,-0.19059 0.19768,-2.37039 0.19768,-2.37039 -1.72191,-1.7989 c -3.09476,-3.23314 -4.83155,-7.23722 -4.88141,-11.25385 -0.0344,-2.77445 0.49162,-3.82937 2.19111,-4.39394 1.96147,-0.6516 3.81386,0.5371 5.03209,3.22914 0.64634,1.42828 0.68072,1.82276 0.64673,7.42042 l -0.0359,5.91194 2.09669,2.20121 c 3.34853,3.51546 4.58812,6.43869 4.58812,10.81988 0,2.97597 -0.60277,4.6551 -2.19939,6.12681 -1.5119,1.39362 -3.223,1.93562 -5.2584,1.66562 l -1.44751,-0.19202 0.172,2.05153 c 0.21514,2.56621 1.36565,5.15084 2.57008,5.77367 2.40888,1.24568 4.59024,0.0119 4.31621,-2.44132 -0.0775,-0.69358 -0.37539,-1.52021 -0.66204,-1.83695 -0.58536,-0.64682 -2.16913,-0.77666 -2.72259,-0.22321 -0.25078,0.25079 -0.44367,0.26172 -0.66756,0.0378 -0.46858,-0.46858 1.07289,-1.56617 2.19954,-1.56617 3.33404,0 4.2411,5.24824 1.22493,7.08749 -1.19812,0.73061 -2.40598,0.69828 -4.00017,-0.10707 z m 2.16286,-10.02653 c 1.18384,-0.49465 2.38339,-1.88195 2.85017,-3.2963 0.21722,-0.65818 0.3049,-2.15299 0.22887,-3.90181 -0.15521,-3.57004 -0.99247,-5.40861 -3.8228,-8.39463 -1.93546,-2.04192 -1.97371,-2.065 -1.98899,-1.20022 -0.009,0.48496 -0.0925,1.34684 -0.18661,1.91529 -0.16271,0.9832 -0.11278,1.05926 1.02487,1.56119 2.8404,1.25318 3.80629,4.98546 1.88203,7.27232 -1.31821,1.5666 -1.71654,0.97201 -0.52505,-0.78375 1.10403,-1.62688 0.97421,-2.60211 -0.54915,-4.12548 -0.70616,-0.70616 -1.47653,-1.28393 -1.71193,-1.28393 -0.33954,0 -0.53304,1.0781 -0.93635,5.21694 -0.2796,2.86932 -0.5779,5.581 -0.66289,6.02597 -0.12412,0.6498 -0.0198,0.86306 0.53029,1.08354 1.01431,0.40659 2.77842,0.36593 3.86754,-0.0891 z m -4.98737,-5.33038 c 0.26811,-1.93983 0.51931,-4.38664 0.55823,-5.43738 l 0.0708,-1.91043 -1.17565,0.0676 c -0.8855,0.0509 -1.37512,0.28783 -1.9839,0.95986 -0.74753,0.82517 -0.80826,1.07876 -0.80826,3.3748 0,2.67196 0.65224,4.99301 1.82044,6.47812 0.81842,1.04046 0.9185,0.80761 1.51837,-3.5326 z m 1.58621,-20.20647 c -0.097,-3.79303 -0.25569,-5.41094 -0.6301,-6.42371 -1.3736,-3.71556 -5.18039,-4.28727 -5.1746,-0.77712 0.003,1.74138 1.02538,5.82573 1.88135,7.5149 0.82199,1.62213 3.29042,4.75592 3.74615,4.75592 0.20634,0 0.26438,-1.66067 0.1772,-5.06999 z m -92.82609,5.17731 c 0.72827,-0.92584 0.75631,-1.44682 0.15533,-2.88517 -0.55252,-1.32238 -0.36415,-2.02218 0.93369,-3.46863 1.1824,-1.31779 1.20781,-1.5957 0.26468,-2.89481 -0.39877,-0.54927 -0.95787,-1.31893 -1.24245,-1.71034 -0.28551,-0.39268 -0.51742,-1.22949 -0.51742,-1.86702 0,-0.94142 0.18382,-1.31961 0.99266,-2.04231 0.91179,-0.81469 1.11592,-0.87245 2.50591,-0.70908 1.11146,0.13063 1.68351,0.0586 2.15449,-0.27129 0.58295,-0.40831 0.63508,-0.67309 0.57349,-2.91247 -0.0654,-2.37659 -0.0367,-2.49595 0.81398,-3.38941 0.78578,-0.8253 1.02568,-0.91274 2.20434,-0.80352 0.72743,0.0674 1.99928,0.42678 2.82634,0.79859 1.7792,0.79986 2.79471,0.65605 3.307,-0.4683 0.58146,-1.27617 0.95571,-5.02809 0.86165,-8.63824 l -0.0881,-3.37999 -0.95663,2.01995 c -1.2043,2.54288 -2.45075,4.24045 -4.84916,6.6042 -2.40836,2.37355 -4.70617,3.96785 -8.10243,5.62177 -2.48938,1.21228 -2.69781,1.38038 -2.69781,2.17589 0,1.49437 -0.91049,8.97718 -1.63153,13.40868 -0.61952,3.80755 -0.64702,4.33057 -0.25882,4.92303 0.61666,0.94114 1.96575,0.88644 2.75075,-0.11153 z m 100.96587,0.38034 c 0.62959,-0.46037 0.61884,-0.62896 -0.53718,-8.42329 -0.41957,-2.8289 -0.86392,-6.45973 -0.98743,-8.06851 l -0.22457,-2.92505 -2.64521,-1.34155 c -6.28195,-3.18597 -10.21983,-6.86539 -12.86024,-12.01617 l -1.15226,-2.24776 0.13453,5.33448 c 0.11192,4.43817 0.22738,5.52461 0.68714,6.46606 0.69893,1.43124 1.30954,1.52354 3.71432,0.56147 2.27314,-0.9094 3.41681,-0.94845 4.43024,-0.15128 0.97663,0.76822 1.31279,2.02419 1.14615,4.28242 -0.17027,2.30741 0.35236,2.79361 2.73826,2.54736 1.45884,-0.15056 1.63234,-0.0988 2.46768,0.73657 1.43704,1.43704 1.23723,3.15784 -0.61415,5.28915 -1.12559,1.29579 -1.07056,2.16302 0.2191,3.45268 1.14097,1.14097 1.09929,0.79406 0.53739,4.47272 -0.28584,1.8714 1.49008,3.09547 2.94623,2.0307 z m -46.36613,-1.641 c 8.05341,-1.66196 14.95618,-7.46578 18.04043,-15.16832 1.44893,-3.61853 1.81388,-5.90046 1.66717,-10.42434 -0.11316,-3.4893 -0.24234,-4.30454 -1.07116,-6.75998 -2.25953,-6.69395 -6.59271,-11.66067 -12.85545,-14.73496 -12.38018,-6.07726 -27.29805,-1.01441 -33.45781,11.35497 -5.41417,10.87216 -2.10306,24.54613 7.61239,31.43709 6.06047,4.29857 12.92669,5.76854 20.06443,4.29554 z m -10.05071,-2.25293 c -11.10632,-2.46565 -18.60443,-12.31485 -17.98804,-23.62834 0.51315,-9.41875 6.41622,-17.2216 15.41301,-20.37335 2.23927,-0.78446 3.07673,-0.91843 6.42284,-1.0275 3.21287,-0.10472 4.25561,-0.0239 6.31911,0.48979 7.70016,1.91688 13.72002,7.51813 16.30857,15.17447 0.64147,1.89734 0.82235,3.06271 0.93687,6.03608 0.17468,4.53536 -0.41672,7.27526 -2.46944,11.44063 -1.14649,2.32644 -1.80784,3.22078 -4.04546,5.47061 -3.00473,3.02114 -5.59556,4.63895 -9.43489,5.89149 -3.02058,0.98544 -8.30176,1.22784 -11.46257,0.52612 z m 10.46687,-1.0044 c 1.62585,-0.4291 4.6696,-1.77104 4.6696,-2.05874 0,-0.11934 -0.73108,-1.47228 -1.62464,-3.00652 l -1.62463,-2.78952 -1.91162,0.69388 c -1.05139,0.38164 -2.63486,0.77888 -3.51883,0.88277 l -1.6072,0.18889 v 3.29054 c 0,1.8098 0.0632,3.35375 0.14045,3.431 0.20219,0.20218 3.95791,-0.23141 5.47687,-0.6323 z m -6.20515,-2.75221 v -3.34203 l -1.68999,-0.19531 c -0.9295,-0.10741 -2.47667,-0.51714 -3.43815,-0.91051 -0.96149,-0.39337 -1.76982,-0.68629 -1.79631,-0.65092 -0.0265,0.0354 -0.79287,1.36258 -1.70309,2.94937 l -1.65495,2.88508 1.92539,0.87302 c 2.36374,1.07177 4.77503,1.67648 6.81406,1.70884 l 1.54304,0.0245 z m 15.05129,-2.02036 c 1.32085,-1.08656 4.053,-4.41429 4.053,-4.93651 0,-0.13621 -1.27651,-0.99892 -2.8367,-1.91713 l -2.83671,-1.6695 -1.48736,1.69567 c -0.81805,0.93261 -1.9768,2.0502 -2.57499,2.48353 l -1.08761,0.78786 1.33103,2.32836 c 0.73207,1.28061 1.52017,2.63062 1.75135,3.00003 l 0.42031,0.67166 0.94165,-0.65257 c 0.51791,-0.35892 1.56462,-1.16505 2.32603,-1.7914 z m -24.20644,-0.69431 1.57264,-2.81081 -0.6909,-0.46828 c -0.91731,-0.62173 -3.21838,-2.94399 -3.95921,-3.99566 l -0.59185,-0.84018 -2.70384,1.53733 c -1.48712,0.84553 -2.77721,1.65601 -2.86686,1.80108 -0.48138,0.77888 6.12836,7.61748 7.33963,7.59376 0.18026,-0.004 1.03544,-1.27129 1.90039,-2.81724 z m 13.49884,-2.07418 c 4.53732,-1.13699 8.96128,-5.74446 10.05144,-10.4684 0.42797,-1.85451 0.35827,-5.15616 -0.15006,-7.10776 -1.30636,-5.01544 -5.33,-8.9197 -10.60969,-10.29488 -7.3844,-1.9234 -15.29557,2.92159 -17.29313,10.59073 -2.12875,8.17283 3.73883,16.77269 12.11071,17.75015 2.08126,0.243 3.49648,0.13012 5.89073,-0.46984 z m -4.87597,-12.22187 c -0.37357,-0.17981 -0.75107,-0.68612 -0.83887,-1.12514 -0.11317,-0.56586 -0.386,-0.845 -0.93728,-0.95899 -0.74167,-0.15335 -8.70967,-5.7333 -8.4944,-5.94858 0.20702,-0.20702 8.9107,3.5006 9.5287,4.05906 0.41858,0.37826 0.84396,0.50909 1.2432,0.38238 0.33379,-0.10594 0.8355,-0.0647 1.11491,0.0917 0.36181,0.20249 0.59612,0.16456 0.81419,-0.13179 0.29701,-0.40363 8.06684,-3.76958 8.25869,-3.57773 0.2169,0.2169 -6.75711,5.51846 -7.25934,5.51846 -0.30042,0 -0.54622,0.18879 -0.54622,0.41954 0,0.46909 -1.36829,1.6488 -1.87659,1.61795 -0.18026,-0.0109 -0.63341,-0.16701 -1.00699,-0.34683 z m 1.53693,-0.69341 c 0.27,-0.10361 0.46491,-0.5217 0.46491,-0.99725 0,-1.22877 -1.48698,-1.65362 -2.05738,-0.58782 -0.59978,1.12069 0.34695,2.06302 1.59247,1.58507 z m 20.10277,6.84644 c 0.72036,-1.99307 1.52382,-5.65484 1.52382,-6.94477 0,-0.20132 -1.22669,-0.3111 -3.47615,-0.3111 h -3.47614 l -0.36359,1.97332 c -0.19998,1.08532 -0.63764,2.61034 -0.97259,3.38893 -0.33493,0.77859 -0.55694,1.46766 -0.49333,1.53127 0.0636,0.0636 1.36558,0.84653 2.89328,1.73983 1.98015,1.15787 2.88061,1.53872 3.13631,1.3265 0.19727,-0.16372 0.75005,-1.38051 1.22839,-2.70398 z m -36.60389,0.66908 c 1.71158,-0.96644 2.23607,-1.40371 2.08945,-1.742 -0.35065,-0.80901 -1.27338,-4.24512 -1.44332,-5.37469 l -0.16581,-1.10217 h -3.33057 -3.33057 l 0.12393,1.39608 c 0.19291,2.17309 0.97372,5.31179 1.78914,7.192 0.70249,1.6198 0.77608,1.69092 1.36257,1.31671 0.34098,-0.21758 1.64831,-0.97624 2.90518,-1.68593 z m 38.12771,-9.20905 c 0,-1.4299 -1.04249,-5.90289 -1.79962,-7.7216 -0.49525,-1.18962 -0.94376,-2.16296 -0.9967,-2.16296 -0.0747,0 -5.67571,3.16958 -5.93385,3.35794 -0.0329,0.024 0.24907,0.89844 0.62654,1.94326 0.37746,1.04481 0.78048,2.59402 0.89559,3.44269 l 0.20931,1.54304 h 3.49936 c 2.7658,0 3.49937,-0.0844 3.49937,-0.40237 z m -37.26211,-1.56228 c 0.12034,-0.83808 0.4313,-2.09455 0.69103,-2.79216 0.82835,-2.22491 0.81175,-2.25632 -2.07837,-3.93365 -1.45487,-0.84436 -2.74064,-1.47737 -2.85728,-1.4067 -0.79657,0.48264 -2.58009,6.38416 -2.58009,8.53728 v 1.28522 l 3.30296,-0.0831 3.30296,-0.0831 z m 5.3603,-13.76783 c -1.87765,-3.19041 -1.60444,-3.14895 -4.55729,-0.69154 -1.63855,1.36361 -4.39469,4.67304 -4.39469,5.27691 0,0.13794 1.20103,0.95919 2.66896,1.825 l 2.66896,1.57421 2.62678,-2.59941 2.62678,-2.59941 z m 25.75774,6.44396 2.90849,-1.6468 -0.51307,-0.87746 c -1.18761,-2.03103 -5.80368,-6.42659 -6.72461,-6.40337 -0.2658,0.007 -3.34579,5.33858 -3.33366,5.77102 0.004,0.13627 0.54357,0.64455 1.19945,1.12951 0.65588,0.48495 1.67188,1.50997 2.25779,2.27782 0.5859,0.76784 1.11744,1.39608 1.1812,1.39608 0.0637,0 1.42473,-0.74106 3.02441,-1.6468 z m -6.73138,-6.58932 1.6732,-2.93967 -1.43533,-0.72733 c -1.69579,-0.85933 -5.0535,-1.798 -7.42193,-2.07485 l -1.68999,-0.19755 v 3.56081 3.56082 l 0.95521,0.004 c 1.21027,0.004 3.64545,0.64755 4.78338,1.26329 0.48094,0.26023 1.00669,0.47709 1.16834,0.4819 0.16166,0.005 1.04686,-1.3141 1.96712,-2.93091 z m -14.33927,1.91701 c 1.20388,-0.40413 2.72766,-0.73478 3.38618,-0.73478 h 1.1973 v -3.56082 -3.56081 l -1.68999,0.20172 c -2.42994,0.29004 -4.90938,0.96465 -6.87372,1.87019 l -1.7093,0.78798 1.6781,2.86566 c 0.92296,1.5761 1.71061,2.86564 1.75033,2.86564 0.0397,0 1.05722,-0.33065 2.2611,-0.73478 z m -24.66078,-44.5277 c 0.0999,-0.16165 0.0416,-0.29391 -0.12961,-0.29391 -0.17119,0 -0.31125,0.13226 -0.31125,0.29391 0,0.16165 0.0583,0.29391 0.1296,0.29391 0.0713,0 0.21136,-0.13226 0.31126,-0.29391 z m -0.30898,-1.83115 c 0.69507,-0.99234 0.55137,-1.85715 -0.44835,-2.69836 -1.81875,-1.53038 -3.31251,-0.59623 -2.63935,1.65057 0.47216,1.57592 1.3222,2.39959 2.06574,2.00166 0.31131,-0.1666 0.77119,-0.59584 1.02196,-0.95387 z m 62.4345,0.27252 c 1.01923,-1.93763 0.88157,-3.73179 -0.28632,-3.73179 -0.34985,0 -1.08154,0.27531 -1.62599,0.6118 -1.34968,0.83414 -1.39187,2.23075 -0.10021,3.31761 0.98227,0.82653 1.50057,0.77563 2.01252,-0.19762 z m -57.56196,-0.57223 c 0.72462,-1.59639 0.72087,-2.13686 -0.02,-2.87769 l -0.59987,-0.59986 -1.16361,0.65398 c -1.03798,0.58338 -1.1636,0.77507 -1.1636,1.77552 0,1.26103 0.80189,2.29717 1.77784,2.29717 0.42358,0 0.77037,-0.3705 1.16919,-1.24912 z m 52.50994,0.61007 c 0.96164,-0.90343 0.91812,-2.3642 -0.0942,-3.16047 -0.91216,-0.71751 -1.94504,-0.78711 -2.46068,-0.16581 -0.74987,0.90355 0.32029,3.96533 1.38598,3.96533 0.26875,0 0.79474,-0.28757 1.16888,-0.63905 z M 231.60959,98.23034 c 0,-3.17856 -0.38131,-4.03321 -1.79946,-4.03321 -2.04396,0 -2.74586,1.49117 -1.90026,4.03704 0.74138,2.2321 1.19939,2.72294 2.54074,2.72294 h 1.15898 z m 4.55172,1.18373 c 1.08208,-2.39096 1.19029,-3.46765 0.44386,-4.41658 -0.45615,-0.5799 -0.8945,-0.80036 -1.59137,-0.80036 -1.52482,0 -1.85418,0.63953 -2.00565,3.89434 l -0.13336,2.86564 h 1.29409 c 1.2765,0 1.30358,-0.021 1.99243,-1.54304 z m 53.05506,-1.18373 c 0,-3.26516 -0.36698,-4.03321 -1.92709,-4.03321 -1.99575,0 -2.64843,1.5593 -1.73562,4.14649 0.77016,2.18286 1.18107,2.61349 2.49384,2.61349 h 1.16887 z m 4.61055,1.07288 c 1.34341,-2.93438 0.81,-5.17957 -1.23056,-5.17957 -1.41464,0 -1.8297,0.80134 -2.05516,3.96782 l -0.20404,2.86564 h 1.3663 1.36629 z M 260.55994,88.02497 c -0.0999,-0.16165 -0.31391,-0.29391 -0.47556,-0.29391 -0.16165,0 -0.21218,0.13226 -0.11227,0.29391 0.0999,0.16166 0.31391,0.29392 0.47556,0.29392 0.16165,0 0.21217,-0.13226 0.11227,-0.29392 z m 1.76347,0 c 0.0999,-0.16165 0.0416,-0.29391 -0.12961,-0.29391 -0.17119,0 -0.31126,0.13226 -0.31126,0.29391 0,0.16166 0.0583,0.29392 0.12961,0.29392 0.0713,0 0.21135,-0.13226 0.31126,-0.29392 z"
             id="path4048"
             inkscape:connector-curvature="0"
             clip-path="url(#clipPath4266)"
             transform="translate(-0.19482,7.053922)" />
          <g
             style="display:inline;fill:#ffffff"
             id="g4113"
             transform="translate(-0.88174,7.12163)">
            <path
               inkscape:connector-curvature="0"
               id="path4040"
               d="m 201.90581,262.98194 v -23.65993 h -1.3226 -1.32261 v -1.76347 -1.76347 h 1.46956 1.46957 v -3.45792 c 0,-2.74906 0.17543,-4.24026 0.85577,-7.27432 3.50075,-15.61189 6.5476,-33.01768 7.38211,-42.17195 0.19141,-2.09965 0.44049,-3.42554 0.65755,-3.50022 1.48148,-0.50977 6.30817,-3.19428 7.87262,-4.3786 3.01065,-2.27912 5.71216,-5.38965 7.04342,-8.10981 2.02974,-4.14736 2.11634,-4.74837 2.27004,-15.75389 0.11191,-8.01301 0.21392,-9.88982 0.54796,-10.0811 0.32253,-0.1847 0.41044,-1.17617 0.41044,-4.62912 v -4.39407 h -1.76347 -1.76347 v -1.76348 -1.76347 h 1.91043 c 1.17049,0 1.91042,-0.12279 1.91042,-0.31702 0,-0.39429 1.39953,-10.94197 1.6251,-12.24773 l 0.16501,-0.95521 h 2.73539 c 2.35001,0 2.87362,-0.0932 3.71663,-0.6613 1.38716,-0.93485 2.2263,-2.76991 3.55202,-7.76764 2.04064,-7.692787 3.8559,-10.414377 9.36753,-14.044569 1.53569,-1.011469 3.42543,-2.518527 4.19941,-3.349017 1.62554,-1.744207 3.29477,-5.023338 3.79844,-7.461845 l 0.3493,-1.691167 h 2.73336 2.73337 v 0.868366 c 0,1.093727 1.12678,4.226363 2.14533,5.964401 1.16057,1.980362 3.07463,3.803461 5.92117,5.639789 4.31691,2.784875 6.5205,5.238085 7.85143,8.740792 0.32175,0.84678 1.03726,3.23831 1.59001,5.31452 1.24031,4.65869 2.00949,6.48496 3.12757,7.42576 0.7996,0.67282 1.09736,0.728 3.9287,0.728 2.41352,0 3.06353,0.0863 3.06353,0.4069 0,0.44525 1.36925,10.9114 1.62902,12.45176 l 0.16109,0.95521 h 1.89711 1.89711 v 1.76347 1.76348 h -1.76347 -1.76348 v 4.55563 c 0,3.85352 0.0679,4.55564 0.44087,4.55564 0.3819,0 0.44087,1.15696 0.44087,8.64914 0,4.75703 0.14327,9.68374 0.31837,10.94824 0.84675,6.11469 4.41801,11.28709 10.60931,15.36587 1.47382,0.97094 3.566,2.12859 4.64929,2.57257 l 1.96963,0.80722 0.34113,3.82712 c 0.76592,8.59295 3.92866,26.64477 7.25585,41.41388 0.56946,2.52778 0.72069,4.02336 0.72069,7.12737 v 3.92832 h 1.61651 1.61652 v 1.74737 1.74737 l -1.39608,0.0896 -1.39608,0.0896 -0.0752,23.58645 -0.0752,23.58645 h -14.84087 -14.84082 v -16.68542 c 0,-15.87729 -0.029,-16.78995 -0.59802,-18.84348 -1.33058,-4.80154 -3.23726,-8.24439 -6.398,-11.55269 -4.85958,-5.08647 -11.20979,-7.93676 -19.6403,-8.81554 -10.29785,-1.07342 -21.44699,2.97638 -27.1835,9.87411 -2.02004,2.42896 -4.39308,7.02464 -5.24616,10.15983 -0.56909,2.09149 -0.59819,3.01727 -0.59819,19.03081 v 16.83238 h -14.98952 -14.98952 z m 9.09361,19.08554 c 1.42313,-0.77456 2.70427,-2.00475 3.91617,-3.7604 0.70107,-1.01562 2.35719,-1.46016 3.56261,-0.95628 1.07745,0.45039 1.4696,0.89234 1.8547,2.09022 0.1559,0.48496 0.61107,1.0665 1.01149,1.29232 0.62494,0.35246 0.8505,0.35104 1.59295,-0.01 0.85205,-0.41435 0.86353,-0.45169 0.77082,-2.50772 -0.0889,-1.97257 -0.0446,-2.14353 0.80826,-3.11486 1.01725,-1.15859 1.12459,-1.83394 0.41594,-2.61699 -0.82859,-0.91558 -2.01991,-0.6864 -2.93532,0.56468 -1.13611,1.55274 -1.5506,1.83695 -2.67895,1.83695 -1.35661,0 -1.98016,-0.39306 -2.43001,-1.5318 -0.49291,-1.24772 -1.43083,-2.28905 -2.06173,-2.28905 -0.83004,0 -1.94935,1.09364 -2.47605,2.41927 -0.27416,0.69005 -0.77548,1.55221 -1.11403,1.91593 -1.01924,1.09498 -3.12883,0.76518 -4.70134,-0.73499 l -0.80826,-0.77107 v 4.65087 4.65086 l 1.87702,-0.15067 c 1.28675,-0.10329 2.35462,-0.4106 3.39573,-0.97725 z m 17.35849,-10.79292 V 259.4342 l -1.90678,-0.94027 -1.90677,-0.94027 -0.63059,1.24458 c -0.8605,1.69834 -2.11115,3.24004 -3.02522,3.72923 -0.67892,0.36335 -0.76018,0.58307 -0.76018,2.05525 0,1.00703 -0.17573,1.8993 -0.45163,2.29321 -0.63757,0.91024 -2.47542,1.35452 -3.95509,0.95609 -1.42733,-0.38434 -2.05935,-1.42854 -2.05935,-3.40235 0,-1.25701 -0.11088,-1.47122 -1.3061,-2.5233 -0.71836,-0.63232 -1.6562,-1.86524 -2.08409,-2.73983 l -0.77799,-1.59015 -1.88373,0.92891 -1.88372,0.9289 v 6.39276 6.39276 l 0.95062,1.0827 c 1.04531,1.19053 2.62726,1.99361 3.42709,1.73975 0.28254,-0.0897 0.89962,-0.97047 1.37129,-1.95732 1.00107,-2.09449 1.89582,-2.90206 3.21532,-2.90206 1.23288,0 2.31241,0.8707 2.89987,2.3389 0.31805,0.79488 0.70203,1.23254 1.18848,1.35463 0.92257,0.23155 1.43886,-0.0705 2.29538,-1.34282 1.28405,-1.90743 3.05591,-2.19602 4.51633,-0.7356 1.05839,1.05839 0.97275,2.64091 -0.20889,3.86005 -0.86378,0.8912 -0.90455,1.03177 -0.686,2.36529 0.45744,2.79105 -0.18809,3.76908 -2.48772,3.76908 -1.61126,0 -2.493,-0.58293 -2.81132,-1.85858 -0.52088,-2.08743 -2.33108,-2.44917 -3.79244,-0.75788 -1.59532,1.84632 -2.65546,2.90745 -3.41194,3.41512 -0.69632,0.4673 -0.29252,0.49392 7.71519,0.50853 l 8.44998,0.0154 z m 82.33572,10.95405 c -0.67294,-0.48748 -1.69766,-1.54629 -2.27717,-2.35291 -1.69438,-2.35845 -3.68019,-2.37973 -4.45664,-0.0478 -0.31277,0.93938 -0.67288,1.38811 -1.3874,1.72884 -1.30081,0.62032 -2.87147,0.30932 -3.6894,-0.73052 -0.62706,-0.79717 -0.63406,-1.02223 -0.10423,-3.35161 0.13796,-0.60651 0.003,-0.96748 -0.57897,-1.54953 -1.55755,-1.55756 -1.691,-2.99981 -0.38992,-4.21408 1.50209,-1.40186 3.22398,-1.02659 4.59888,1.00229 0.80841,1.19293 1.80244,1.58631 2.51472,0.99517 0.22549,-0.18714 0.68307,-0.90438 1.01685,-1.59387 0.63789,-1.3177 1.55916,-1.93185 2.89792,-1.93185 1.22778,0 1.98478,0.70895 2.95923,2.77137 0.52051,1.10167 1.13026,1.9605 1.468,2.0677 0.9042,0.28698 2.47964,-0.53592 3.5053,-1.83093 l 0.9364,-1.1823 v -6.31016 -6.31015 l -1.72674,-0.77492 c -0.94971,-0.42621 -1.84247,-0.77287 -1.98391,-0.77037 -0.14144,0.003 -0.66361,0.76301 -1.16037,1.69 -0.53766,1.0033 -1.3928,2.0423 -2.1129,2.56717 -1.18752,0.86558 -1.21003,0.9152 -1.22766,2.70724 -0.0143,1.45547 -0.14183,1.94091 -0.62906,2.39484 -1.11987,1.04331 -3.83345,1.04017 -4.9561,-0.006 -0.47421,-0.44179 -0.60498,-0.92636 -0.60509,-2.24214 -1.5e-4,-1.64584 -0.0283,-1.70281 -1.44599,-2.92367 -0.853,-0.73459 -1.76625,-1.9 -2.22725,-2.84226 l -0.78141,-1.59714 -1.8139,0.85777 -1.81389,0.85777 -0.0768,11.90403 -0.0768,11.90403 h 8.42389 8.42389 l -1.22353,-0.88632 z m 7.01357,-3.66932 c 0,-2.50561 -0.0521,-4.55564 -0.11587,-4.55564 -0.0637,0 -0.53611,0.39256 -1.04975,0.87237 -0.99992,0.93406 -2.48772,1.36455 -3.68099,1.06505 -0.54255,-0.13616 -1.00552,-0.72042 -1.76334,-2.22523 -0.56519,-1.12233 -1.30539,-2.18925 -1.64489,-2.37095 -0.99813,-0.53418 -1.99327,-0.0945 -2.54257,1.12343 -0.82054,1.8193 -1.50982,2.41706 -2.78714,2.41706 -1.1722,0 -1.78032,-0.44679 -2.97429,-2.18526 -0.71218,-1.03695 -2.08503,-0.95044 -2.9286,0.18453 -0.64526,0.86817 -0.64633,0.86511 1.02729,2.95664 0.58979,0.73706 0.6196,0.94421 0.33549,2.33117 -0.28996,1.4155 -0.26405,1.56999 0.36961,2.20365 0.76165,0.76165 0.94697,0.79957 1.98281,0.40574 0.4454,-0.16934 0.85288,-0.66285 1.05636,-1.27938 0.4932,-1.49443 1.54463,-2.34595 2.8967,-2.34595 1.0634,0 2.70791,0.75805 2.70791,1.24823 0,0.52659 2.53161,3.02682 3.63622,3.59114 1.67105,0.85371 2.45684,1.06442 4.07897,1.09377 l 1.39608,0.0253 z m -98.99806,-12.09596 c 0.35402,-0.32038 0.53749,-0.89725 0.53749,-1.68999 v -1.20357 h -2.20434 -2.20434 v 1.3373 c 0,0.73551 0.15871,1.49601 0.35269,1.68999 0.52923,0.52923 2.88487,0.4397 3.5185,-0.13373 z m 89.42493,0.0246 c 0.2725,-0.2725 0.46186,-0.96539 0.46186,-1.68999 v -1.22813 h -2.20434 -2.20434 v 1.22813 c 0,1.59503 0.57041,2.15186 2.20434,2.15186 0.77231,0 1.46393,-0.18332 1.74248,-0.46187 z m -88.70382,-4.36002 c 5.11042,-2.37952 6.14976,-10.79636 1.88522,-15.26685 -4.0094,-4.20302 -10.02991,-1.48661 -11.18867,5.04825 -0.95132,5.36505 2.46675,10.8752 6.76853,10.9113 0.56578,0.005 1.7065,-0.30697 2.53492,-0.6927 z m 88.61946,0.36597 c 1.64292,-0.49223 3.32575,-2.06721 4.27568,-4.00167 0.74635,-1.51986 0.82618,-1.98061 0.82618,-4.7685 0,-2.77538 -0.0788,-3.23543 -0.78305,-4.5696 -2.07564,-3.93238 -5.73636,-5.39195 -8.88925,-3.54423 -4.88588,2.86331 -5.57645,11.27251 -1.26551,15.41013 1.68249,1.61485 3.68089,2.11954 5.83595,1.47387 z m -100.22342,-5.11767 c 1.40142,-0.71015 1.48132,-0.81078 1.31283,-1.65326 -0.0987,-0.49339 -0.17942,-1.44959 -0.17942,-2.12488 0,-1.19857 -0.0332,-1.23971 -1.39608,-1.72818 -0.76784,-0.27521 -1.49528,-0.49973 -1.61652,-0.49893 -0.12123,8.8e-4 -0.22043,1.52245 -0.22043,3.38144 0,2.12989 0.11232,3.37999 0.30368,3.37999 0.16703,0 0.9752,-0.34028 1.79594,-0.75618 z m 20.53162,-2.62381 c 0,-3.75436 0.0606,-3.66981 -2.02418,-2.82408 l -1.2894,0.52307 -0.10736,2.12205 -0.10737,2.12206 1.54372,0.70151 c 0.84904,0.38584 1.64291,0.70914 1.76415,0.71845 0.12124,0.009 0.22044,-1.50406 0.22044,-3.36306 z m 68.62635,2.63369 c 1.62293,-0.71774 1.68058,-0.78102 1.50613,-1.65326 -0.0998,-0.49882 -0.18139,-1.45455 -0.18139,-2.12383 0,-1.19088 -0.0307,-1.22777 -1.43553,-1.72673 -0.78954,-0.28043 -1.51697,-0.50986 -1.61651,-0.50986 -0.0995,0 -0.18099,1.521 -0.18099,3.37999 0,1.859 0.0497,3.37999 0.11038,3.37999 0.0607,0 0.86977,-0.33584 1.79791,-0.7463 z m 20.72294,-2.63369 c 0,-1.85899 -0.1087,-3.37999 -0.24155,-3.37999 -0.13285,0 -0.86029,0.21082 -1.61652,0.4685 -1.19309,0.40653 -1.37496,0.57604 -1.37496,1.28158 0,0.4472 -0.0826,1.41581 -0.18358,2.15247 l -0.18358,1.33937 1.4327,0.74535 c 0.78799,0.40994 1.59804,0.7515 1.8001,0.75903 0.27341,0.0102 0.36739,-0.85096 0.36739,-3.36631 z m -108.18283,-4.62912 c 0.47945,-1.64626 1.57832,-3.36066 2.96708,-4.62911 l 1.12627,-1.02869 -1.09474,-2.49826 -1.09474,-2.49825 -2.85078,-0.0841 -2.85079,-0.0841 v 5.42747 5.42748 l 1.54304,0.59305 c 0.84867,0.32618 1.6213,0.59994 1.71695,0.60837 0.0957,0.008 0.33762,-0.5468 0.53771,-1.23382 z m 17.21253,0.63774 1.63408,-0.61139 -0.08,-5.34033 -0.08,-5.34033 h -2.77594 -2.77594 l -1.0953,2.53689 -1.0953,2.53689 1.54936,1.59961 c 1.35775,1.4018 2.06231,2.67573 2.68935,4.86266 0.13531,0.47193 0.10721,0.47531 2.02973,-0.244 z m 71.86625,0.244 c 5.8e-4,-0.87825 1.81852,-4.09559 2.91611,-5.16076 0.65913,-0.63968 1.19842,-1.28871 1.19842,-1.4423 0,-0.15359 -0.45499,-1.32635 -1.01109,-2.60612 l -1.01109,-2.32687 -2.81629,-0.0842 -2.81629,-0.0842 0.08,5.49645 0.08,5.49645 1.46956,0.51669 c 1.81934,0.63968 1.91037,0.64896 1.91066,0.19486 z m 17.46785,-0.2637 1.64913,-0.63108 -0.0799,-5.32064 -0.0799,-5.32063 -2.67404,-0.0839 c -1.91698,-0.0602 -2.75505,0.023 -2.96019,0.29391 -0.15739,0.20781 -0.7109,1.37193 -1.23002,2.58693 l -0.94387,2.20909 1.59727,1.64909 c 1.13403,1.17082 1.78757,2.17101 2.25344,3.44871 0.3609,0.9898 0.69282,1.79963 0.7376,1.79963 0.0448,0 0.82353,-0.28399 1.73056,-0.63109 z m -82.76663,-7.37802 c 4.01839,-7.26422 11.18629,-12.10139 21.06477,-14.21529 3.67964,-0.78742 11.45964,-0.70356 15.28194,0.16472 9.67574,2.19793 16.4684,6.9076 20.58843,14.2749 0.5864,1.0486 1.12094,1.90654 1.18785,1.90654 0.0669,0 0.12166,-4.62912 0.12166,-10.28693 v -10.28692 h -29.83208 -29.83209 v 10.28692 c 0,5.65781 0.0542,10.28693 0.12039,10.28693 0.0662,0 0.65083,-0.95889 1.29913,-2.13087 z m -15.33709,0.50547 c 0.70074,0.10509 1.34898,0.2162 1.44055,0.24693 0.24422,0.082 2.16032,-4.43158 1.96445,-4.62746 -0.21926,-0.21925 -8.44402,-0.21595 -8.66345,0.003 -0.0933,0.0933 0.16357,0.91997 0.57091,1.83695 0.40734,0.91698 0.85181,1.956 0.98772,2.30893 0.22445,0.58286 0.34696,0.61411 1.33643,0.3409 0.59913,-0.16543 1.66266,-0.21481 2.36339,-0.10972 z m 89.45556,-0.0747 1.49902,0.0836 0.86573,-2.01299 c 0.47615,-1.10715 0.86572,-2.13217 0.86572,-2.27782 0,-0.14566 -1.99282,-0.26483 -4.42849,-0.26483 -5.08481,0 -4.74636,-0.33099 -3.19565,3.12525 l 0.82337,1.83514 1.03564,-0.28595 c 0.56959,-0.15728 1.71019,-0.24835 2.53466,-0.20238 z m -79.1329,-14.68551 -0.079,-6.6865 -1.91042,0.0961 c -1.90639,0.0959 -3.11933,0.58822 -3.42749,1.39127 -0.34269,0.89305 0.20993,1.84586 1.51377,2.60996 2.02147,1.18466 2.66686,2.83249 1.78062,4.5463 -0.8506,1.64488 -2.34754,1.76 -4.42254,0.34012 -1.74349,-1.19304 -3.78796,-0.54223 -4.13672,1.3168 -0.53622,2.85831 -5.23135,2.97871 -5.85262,0.15008 -0.30339,-1.3813 -0.82365,-1.63542 -2.53801,-1.2397 -3.18497,0.73518 -4.66651,0.15994 -4.66651,-1.81187 0,-1.21821 0.86883,-2.08656 2.71818,-2.7167 2.43015,-0.82804 2.58077,-1.99478 0.39045,-3.02435 -2.17136,-1.02066 -2.39539,-3.07447 -0.48383,-4.43562 1.49814,-1.06677 1.05823,-3.14341 -0.61491,-2.90274 -0.76937,0.11067 -0.71645,-0.0517 -2.1574,6.61965 -0.87931,4.07108 -1.02814,5.31554 -1.02814,8.59693 v 3.8368 h 12.49679 12.49678 z m 91.76596,3.08608 c -0.002,-3.13946 -0.16556,-4.35302 -1.27539,-9.47866 -1.23496,-5.70353 -1.29519,-5.88093 -2.02636,-5.96851 -0.51841,-0.0621 -0.90004,0.11884 -1.22287,0.57975 -0.64671,0.9233 -0.62341,0.99923 0.70636,2.30268 0.92394,0.90564 1.17565,1.37054 1.17565,2.17137 0,1.06482 -0.44075,1.55656 -2.32235,2.59103 -1.64924,0.90672 -1.0429,2.05869 1.5095,2.86783 2.20677,0.69958 2.90569,2.92349 1.32948,4.2303 -0.54112,0.44864 -0.9434,0.51072 -2.27693,0.35138 -3.4345,-0.41038 -3.32077,-0.43849 -4.00638,0.99023 -0.7999,1.66687 -1.39377,2.08129 -2.98251,2.08129 -1.03284,0 -1.45979,-0.17075 -2.14816,-0.85913 -0.47253,-0.47252 -0.85913,-1.13382 -0.85913,-1.46956 0,-1.76601 -2.37599,-2.31918 -4.29419,-0.99974 -2.29617,1.57941 -4.52318,0.59088 -4.52318,-2.00777 0,-1.2344 0.39018,-1.73421 2.96482,-3.79791 0.78273,-0.62739 0.91147,-0.89197 0.74899,-1.53932 -0.28295,-1.12738 -1.24644,-1.61246 -3.4199,-1.72176 l -1.91042,-0.0961 -0.079,6.6865 -0.079,6.68651 h 12.49679 12.49678 l -0.003,-3.60043 z m -104.14655,1.40663 c 0.33791,-0.23668 0.69536,-0.83523 0.79433,-1.33012 0.46929,-2.34643 3.13514,-3.0966 5.68791,-1.60058 1.5734,0.92208 2.45034,0.8419 2.98296,-0.27271 0.54598,-1.14257 0.11498,-2.01187 -1.4876,-3.00043 -1.68896,-1.04185 -1.99511,-1.49036 -1.99511,-2.92293 0,-2.0431 1.67225,-3.05705 5.06998,-3.07412 l 1.39609,-0.007 v -21.73959 -21.73958 l -1.05845,0.62449 c -1.15848,0.68353 -1.15974,0.68332 -5.20948,-0.84413 l -1.41837,-0.53497 -0.74782,0.86573 c -0.70313,0.81398 -0.73615,0.99459 -0.55242,3.02209 0.19296,2.12937 0.18399,2.16778 -0.71623,3.068 -0.85237,0.85238 -1.01488,0.90097 -2.50019,0.74767 -1.30412,-0.13459 -1.72214,-0.0589 -2.33452,0.42282 -0.99299,0.78108 -0.96094,1.91098 0.0907,3.19582 0.46014,0.5622 0.98918,1.31107 1.17565,1.66416 0.71221,1.34864 0.22071,3.24451 -1.05841,4.08262 -0.60295,0.39506 -0.68712,0.62108 -0.52149,1.4002 0.59775,2.81177 0.53699,3.61392 -0.34884,4.60533 -0.84609,0.94693 -1.80057,1.15845 -3.74353,0.82959 -0.48129,-0.0815 -0.61306,0.14001 -0.81647,1.37242 -0.26928,1.63137 -2.22868,11.67112 -2.48088,12.7117 -0.13816,0.57005 -0.0432,0.6613 0.68793,0.6613 2.51046,0 3.14333,3.05596 0.96622,4.66557 -1.30852,0.96743 -1.1748,1.92644 0.37917,2.71921 1.4958,0.7631 1.96308,1.3202 1.97556,2.35524 0.0128,1.06076 -0.75649,1.83663 -2.4208,2.44155 -2.18306,0.79346 -2.78274,1.66784 -1.81059,2.64 0.5501,0.5501 1.0731,0.5721 3.00403,0.12639 2.13101,-0.4919 2.93078,-0.19004 3.61907,1.36595 0.82812,1.87209 2.06176,2.4098 3.39163,1.47832 z m -2.1001,-3.01647 c -0.76079,-0.17969 -1.85594,-1.19068 -2.37922,-2.19642 -1.25953,-2.42078 0.77397,-5.87174 3.18619,-5.40712 1.31252,0.2528 1.80994,0.61809 1.59707,1.17283 -0.14824,0.3863 -0.30851,0.41013 -0.91132,0.13547 -1.39291,-0.63465 -3.40314,0.74804 -3.40314,2.34078 0,1.58838 2.1193,3.26206 3.64554,2.87899 1.1123,-0.27916 2.41462,-1.5295 2.92707,-2.81025 0.46506,-1.1623 1.01493,-5.89353 0.68496,-5.89353 -0.0961,0 -0.83044,0.14062 -1.63185,0.31249 -4.02128,0.86241 -6.72928,-1.86851 -7.02678,-7.08625 -0.24869,-4.36162 0.87435,-7.03547 4.59026,-10.92894 l 2.16868,-2.27231 -0.20452,-4.63463 c -0.32908,-7.45721 0.4898,-10.51229 3.16482,-11.80724 1.78098,-0.86216 2.71955,-0.7922 3.79461,0.28286 0.89445,0.89445 0.89816,0.9116 0.747,3.45347 -0.26156,4.39827 -1.6327,7.4465 -4.99463,11.10371 l -1.59746,1.73777 0.28214,2.57401 0.28214,2.57402 1.11795,0.17877 c 3.21413,0.51395 4.68367,2.99266 4.0733,6.87055 -0.38587,2.45162 -1.51612,4.9617 -2.79025,6.19662 -0.89128,0.86387 -1.00344,1.14521 -1.00344,2.51698 0,2.44185 -0.54058,4.34446 -1.70961,6.01714 -1.40657,2.01255 -3.15593,3.03353 -4.60951,2.69023 z m 4.60134,-10.48811 c 0.7045,-0.15357 0.76906,-0.27756 0.66327,-1.27368 -0.23032,-2.16855 -1.01631,-9.06175 -1.17312,-10.2883 -0.19419,-1.51901 -0.80855,-1.64659 -1.99013,-0.41328 -1.4777,1.54238 -1.63956,4.25602 -0.31922,5.3518 0.33009,0.27395 0.35086,0.45111 0.0898,0.7657 -0.28782,0.3468 -0.42319,0.33372 -0.88661,-0.0857 -0.86091,-0.77911 -1.23714,-2.61351 -0.85075,-4.14801 0.45626,-1.81198 1.03051,-2.58029 2.45549,-3.28531 l 1.22697,-0.60706 -0.0968,-1.98538 c -0.0532,-1.09196 -0.20214,-2.09546 -0.33088,-2.23001 -0.30125,-0.31483 -3.62361,3.53784 -4.45763,5.16915 -1.43432,2.80547 -1.85175,6.81194 -0.97716,9.37872 0.60499,1.77555 2.09768,3.1763 3.86533,3.62725 0.77724,0.19829 1.54543,0.3231 1.70708,0.27736 0.16165,-0.0457 0.64512,-0.15971 1.07439,-0.25328 z m 2.89783,-1.94254 c 1.79348,-2.51871 2.50601,-7.66704 1.28758,-9.30327 -0.58106,-0.78031 -3.24497,-2.06158 -3.58315,-1.7234 -0.0851,0.0851 0.068,1.72915 0.34031,3.65339 0.27229,1.92425 0.5777,4.57021 0.6787,5.87992 0.101,1.30971 0.28728,2.38128 0.41397,2.38128 0.12668,0 0.51485,-0.39956 0.86259,-0.88792 z m -1.34507,-20.27375 c 1.73125,-2.03302 2.90337,-4.49094 3.55143,-7.4473 0.82772,-3.77589 0.30147,-5.77875 -1.51833,-5.77875 -1.91425,0 -3.11874,1.46666 -3.78435,4.60803 -0.63913,3.0164 -0.52397,10.58365 0.15704,10.31909 0.1197,-0.0465 0.8371,-0.81199 1.59421,-1.70107 z m 89.94304,35.75555 c 0.29759,-0.2176 0.68659,-0.84138 0.86443,-1.38616 0.51014,-1.56267 1.48515,-1.94337 3.79914,-1.48342 2.39145,0.47534 3.13724,0.27723 3.13724,-0.83336 0,-0.98664 -0.36874,-1.33083 -2.06816,-1.93042 -1.75318,-0.61855 -2.34052,-1.21908 -2.34052,-2.39305 0,-1.03789 0.34822,-1.47089 2.05535,-2.55573 1.4386,-0.9142 1.44441,-1.50449 0.0277,-2.81238 -0.8956,-0.82681 -1.20133,-1.33486 -1.20133,-1.99631 0,-1.25408 1.0086,-2.43608 2.07872,-2.43608 0.60736,0 0.8604,-0.14417 0.8604,-0.49023 0,-0.26963 -0.4715,-2.9479 -1.04778,-5.95172 -0.57628,-3.00382 -1.18086,-6.15602 -1.34352,-7.00488 -0.285,-1.48738 -0.32431,-1.53561 -1.08308,-1.32892 -2.09721,0.57129 -3.65742,-0.15938 -4.19881,-1.96638 -0.29532,-0.9857 -0.26912,-1.37814 0.16854,-2.52412 l 0.51823,-1.35696 -0.89745,-0.93054 c -1.84704,-1.91515 -1.83292,-3.12712 0.0654,-5.61409 1.23949,-1.62381 1.31366,-2.28882 0.36149,-3.24098 -0.62494,-0.62495 -0.88053,-0.68034 -2.47307,-0.53593 -1.6443,0.1491 -1.83516,0.10198 -2.57204,-0.63489 -0.77322,-0.77322 -0.79015,-0.86223 -0.59335,-3.11832 0.1937,-2.22057 0.17009,-2.35488 -0.53849,-3.06346 -0.40758,-0.40759 -0.91491,-0.74107 -1.12738,-0.74107 -0.21248,0 -1.35654,0.40764 -2.54237,0.90588 -2.26564,0.95192 -3.21587,0.96414 -4.2254,0.0544 -0.4894,-0.44104 -0.51435,0.5937 -0.51435,21.33153 v 21.79505 h 1.33941 c 3.28279,0 5.12666,1.13477 5.12666,3.15511 0,1.04214 -0.88533,2.13768 -2.74448,3.39615 -1.01464,0.68682 -1.2783,1.7672 -0.66114,2.70912 0.58643,0.89499 1.418,0.93227 2.56575,0.115 0.96199,-0.68501 2.75717,-1.02458 3.90006,-0.73773 1.02136,0.25635 1.84401,1.21205 2.06715,2.4015 0.10269,0.5474 0.41285,1.1271 0.68924,1.28824 0.71601,0.41741 1.91554,0.37749 2.54777,-0.0848 z m -2.70466,-3.44647 c -1.34624,-0.40739 -2.85455,-2.02967 -3.43919,-3.69908 -0.27412,-0.78272 -0.57507,-2.48121 -0.66878,-3.77442 -0.16284,-2.24735 -0.22483,-2.41214 -1.40237,-3.72745 -1.53652,-1.7163 -2.32417,-4.04243 -2.32062,-6.85339 0.004,-3.33242 1.21737,-5.08801 3.93845,-5.6994 0.66974,-0.15048 1.27335,-0.32924 1.34135,-0.39724 0.068,-0.068 0.20894,-1.13273 0.31319,-2.36605 l 0.18956,-2.2424 -1.65168,-1.78401 c -2.66818,-2.88196 -4.20572,-6.03875 -4.90944,-10.07978 -0.60006,-3.44582 0.63126,-5.79365 3.03849,-5.79365 3.58028,0 5.12623,4.19589 4.65647,12.63823 l -0.22079,3.96781 2.37895,2.49826 c 1.30842,1.37403 2.66546,3.09342 3.01565,3.82085 2.06357,4.28654 2.01113,9.81401 -0.1171,12.34326 -1.46677,1.74316 -4.18846,2.58143 -6.39149,1.96854 l -0.85138,-0.23686 0.16514,2.29424 c 0.25158,3.49498 1.38208,5.62873 3.3213,6.26873 2.08496,0.6881 3.6537,-0.37039 3.6537,-2.46529 0,-1.38221 -0.75284,-2.65799 -1.75645,-2.97653 -0.31101,-0.0987 -0.98036,0.0351 -1.48745,0.2973 -0.87252,0.4512 -0.91649,0.44807 -0.81974,-0.0583 0.0611,-0.31997 0.58698,-0.70314 1.30793,-0.95305 1.10641,-0.38353 1.28764,-0.37034 2.20113,0.16021 1.98531,1.15307 2.14765,4.32813 0.31123,6.08753 -0.94723,0.9075 -2.37084,1.19326 -3.79606,0.76197 z m 1.89035,-10.45856 c 2.25482,-1.06998 3.43587,-4.60869 2.79178,-8.36478 -0.47194,-2.75208 -1.44323,-4.5534 -3.80694,-7.06023 l -1.97925,-2.09907 -0.18566,0.84938 c -0.10211,0.46716 -0.2013,1.41148 -0.22043,2.0985 -0.0292,1.04863 0.056,1.24913 0.5305,1.24913 0.72435,0 2.26962,1.2972 2.82527,2.37171 0.84064,1.62561 0.40174,4.48997 -0.84675,5.52612 -0.80534,0.66838 -0.85651,-0.22767 -0.0666,-1.16642 1.29361,-1.53736 0.78914,-3.83078 -1.09537,-4.97983 -1.73034,-1.05506 -1.57634,-1.48434 -2.42532,6.7605 -0.44376,4.30955 -0.44118,4.56384 0.05,4.92303 0.72747,0.53194 3.20757,0.47144 4.42873,-0.10804 z m -5.39922,-4.58318 c 0.27243,-1.98024 0.58065,-4.62544 0.68494,-5.87825 l 0.18961,-2.27781 h -0.93946 c -1.35995,0 -2.53088,0.71163 -2.99973,1.82309 -0.54085,1.28214 -0.45397,5.01147 0.15564,6.68017 0.48448,1.3262 1.78094,3.25322 2.1887,3.25322 0.12373,0 0.44786,-1.62019 0.7203,-3.60042 z m 1.62036,-21.01472 c -0.0939,-5.03693 -0.126,-5.27543 -0.92954,-6.9118 -1.1518,-2.3456 -3.06182,-3.25668 -4.36154,-2.08045 -1.09376,0.98984 -0.45866,5.76558 1.24468,9.35964 0.83226,1.75607 3.28734,4.84955 3.84876,4.84955 0.18986,0 0.26026,-1.85838 0.19764,-5.21694 z m -13.83343,19.54516 0.0777,-9.0378 h -29.8363 -29.83634 v 9.11267 9.11268 l 29.75861,-0.0749 29.75861,-0.0749 z m -0.002,-33.06512 -0.0754,-21.67602 -1.81581,-0.14696 c -3.37624,-0.27324 -4.27657,-1.53654 -4.45118,-6.24564 l -0.11715,-3.15956 h -5.57337 c -5.14969,0 -5.56585,-0.0391 -5.4745,-0.51434 0.0898,-0.46704 0.65945,-0.52166 6.1937,-0.59379 l 6.09485,-0.0794 v 3.5475 c 0,4.99177 0.43496,5.72086 3.52892,5.91518 l 1.61454,0.1014 0.0791,-6.53956 0.0791,-6.53954 h -29.84365 -29.84333 l 0.0791,6.53954 0.0791,6.53956 1.61453,-0.1014 c 0.888,-0.0558 1.85808,-0.23174 2.15575,-0.39105 0.99944,-0.53488 1.37318,-2.0798 1.37318,-5.67624 v -3.39539 l 6.09868,0.0794 c 5.18979,0.0676 6.09867,0.14514 6.09867,0.52031 0,0.37385 -0.86006,0.453 -5.65781,0.52069 l -5.6578,0.0798 -5.9e-4,3.1532 c -3e-4,2.41313 -0.12107,3.39466 -0.51435,4.18192 -0.65966,1.3205 -2.13151,2.05634 -4.11431,2.05693 l -1.54291,4.5e-4 v 21.7495 21.7495 h 29.83398 29.83399 z m -56.28608,19.30118 c 0.42097,-0.24519 0.51435,-0.71989 0.51435,-2.61472 0,-1.965 -0.0778,-2.33259 -0.51435,-2.43052 -0.36333,-0.0815 -0.18021,-0.26041 0.62372,-0.60937 0.62594,-0.2717 1.18804,-0.494 1.24913,-0.494 0.0611,0 0.11106,1.37903 0.11106,3.06453 0,2.67145 0.066,3.08176 0.51435,3.19893 0.28289,0.0739 -0.27922,0.14574 -1.24913,0.15957 -1.32979,0.019 -1.63698,-0.0485 -1.24913,-0.27442 z m 4.79707,-0.14441 c -0.62441,-0.6244 -0.58171,-1.49866 0.10178,-2.08388 0.55453,-0.4748 0.55372,-0.49602 -0.0503,-1.31295 -0.79725,-1.07834 -0.38491,-2.16586 0.93075,-2.45483 1.87857,-0.4126 3.10398,0.71675 2.10985,1.94445 -0.54056,0.66756 -0.54047,0.69703 0.004,1.38954 1.15274,1.46548 0.35165,2.97954 -1.57648,2.97954 -0.58192,0 -1.26588,-0.20784 -1.5199,-0.46187 z m 2.34127,-0.45441 c 0.22611,-0.71242 -0.76748,-1.93184 -1.30393,-1.6003 -0.35147,0.21722 -0.4454,1.70894 -0.12761,2.02672 0.41469,0.41469 1.24288,0.168 1.43154,-0.42642 z m -5.9e-4,-3.50911 c 0.29459,-0.47675 -0.11821,-1.74677 -0.56781,-1.74677 -0.21961,0 -0.56599,0.20087 -0.76975,0.44638 -0.30317,0.3653 -0.27474,0.55215 0.15652,1.02869 0.59287,0.65512 0.90031,0.72584 1.18099,0.2717 z m 38.99908,3.96724 c 0.70476,-0.38247 1.40347,-1.24217 1.40347,-1.72687 0,-0.0915 -0.23509,-0.16628 -0.52243,-0.16628 -1.72704,0 -2.46651,-2.23762 -1.14862,-3.47572 0.89119,-0.83723 1.82176,-0.80897 2.7131,0.0824 1.37451,1.37451 0.6576,4.27287 -1.30837,5.28951 -1.17817,0.60925 -2.2601,0.60639 -1.13715,-0.003 z m 1.64168,-4.12732 c -0.0692,-1.08827 -0.21538,-1.45802 -0.6056,-1.53212 -0.43285,-0.0822 -0.51435,0.12927 -0.51435,1.33466 0,1.42839 0.47685,2.36626 0.9583,1.88481 0.1391,-0.1391 0.21184,-0.89841 0.16165,-1.68735 z m 3.87656,4.45856 c 0,-0.0698 0.39345,-1.19401 0.87434,-2.49825 l 0.87435,-2.37135 h -1.29072 c -0.7502,0 -1.3586,0.15385 -1.4528,0.36739 -0.0891,0.20206 -0.13323,-0.0294 -0.098,-0.51435 0.0627,-0.86269 0.1043,-0.88493 1.92449,-1.02975 1.02322,-0.0814 1.90584,-0.10256 1.96139,-0.047 0.25676,0.25676 -2.0443,6.22023 -2.40013,6.22023 -0.21612,0 -0.39295,-0.0571 -0.39295,-0.12691 z m -30.50936,-1.18658 c -8.12245,-1.839 -14.43986,-6.99116 -17.98762,-14.6698 -1.68421,-3.64523 -2.20322,-6.14598 -2.20322,-10.61576 0,-4.46979 0.51901,-6.97054 2.20322,-10.61577 3.46632,-7.50237 9.53233,-12.54372 17.46275,-14.51296 2.26546,-0.56255 3.19798,-0.63377 6.90693,-0.52752 3.88313,0.11124 4.55144,0.21261 7.08005,1.07396 3.88059,1.3219 6.73931,3.02784 9.60331,5.73077 6.67035,6.29523 9.56225,15.17246 7.77056,23.85324 -1.12964,5.47318 -3.64481,9.95606 -7.77056,13.84978 -2.86898,2.70763 -5.73144,4.41408 -9.60331,5.72498 -2.57083,0.87041 -3.14166,0.95261 -7.20085,1.03693 -3.05884,0.0635 -4.97591,-0.0368 -6.26126,-0.32785 z m 10.52298,-0.57244 c 4.64386,-0.98728 8.58879,-3.02099 11.96575,-6.16864 3.71066,-3.45868 6.16584,-7.52706 7.46643,-12.37233 0.89129,-3.32042 0.89129,-9.02388 0,-12.34431 -2.28184,-8.50084 -8.35628,-14.96626 -16.72254,-17.79891 -2.53499,-0.8583 -3.30329,-0.98132 -6.82441,-1.09275 -3.31194,-0.10481 -4.39541,-0.0238 -6.55464,0.49027 -5.08799,1.21129 -9.08575,3.57964 -12.917,7.65229 -1.79802,1.9113 -2.54615,3.01468 -3.85051,5.67892 -2.18462,4.4622 -2.66415,6.48576 -2.66415,11.24234 0,4.44548 0.46438,6.63258 2.20563,10.38789 3.38879,7.3085 9.92215,12.64164 17.46156,14.25375 2.62145,0.56053 7.96147,0.59712 10.43388,0.0715 z m -9.81471,-2.50661 c -13.52006,-2.95407 -21.29176,-16.94024 -16.67022,-30.00019 1.18986,-3.36241 2.51788,-5.41194 5.32687,-8.22092 4.93087,-4.93088 10.37991,-7.02995 17.33721,-6.67863 3.58745,0.18116 6.10082,0.87853 9.55214,2.65038 3.26549,1.67646 7.42083,5.83283 9.1658,9.1681 1.96796,3.76145 2.58284,6.35675 2.57648,10.87475 -0.006,4.4416 -0.4382,6.397 -2.21187,10.01335 -4.54539,9.2676 -15.06208,14.38124 -25.07641,12.19316 z m 4.23038,-3.50972 v -3.49357 l -1.38373,-0.20751 c -1.24838,-0.1872 -3.88785,-0.93796 -5.11572,-1.45509 -0.36969,-0.1557 -0.83947,0.44531 -2.13086,2.72608 -0.91114,1.60921 -1.65662,2.99283 -1.65662,3.07471 0,0.36734 4.58226,2.00439 6.66274,2.38032 3.97671,0.71857 3.62419,1.0128 3.62419,-3.02494 z m 5.94969,2.73417 c 1.97261,-0.50401 5.27695,-1.88752 5.15571,-2.15867 -0.11237,-0.25131 -3.24222,-5.72172 -3.3561,-5.86586 -0.0493,-0.0624 -0.73642,0.1647 -1.52687,0.50474 -0.79044,0.34004 -2.38159,0.77422 -3.53588,0.96485 l -2.09873,0.3466 v 3.52183 3.52184 l 1.83696,-0.20203 c 1.01032,-0.11111 2.59653,-0.3961 3.52491,-0.6333 z m -15.08428,-5.50941 c 0.82108,-1.4272 1.49287,-2.69216 1.49287,-2.81102 0,-0.11886 -0.602,-0.66716 -1.33777,-1.21846 -0.73578,-0.55129 -1.87608,-1.70009 -2.534,-2.55287 -0.65792,-0.8528 -1.26848,-1.55053 -1.35679,-1.55053 -0.45731,0 -5.64605,3.13343 -5.64611,3.40963 -1e-4,0.42795 2.64303,3.87935 3.7129,4.84831 1.65434,1.4983 3.74173,2.92123 3.95706,2.69744 0.12044,-0.12517 0.89077,-1.3953 1.71184,-2.8225 z m 22.84619,1.76527 c 1.80457,-1.32844 4.29445,-3.94684 5.17099,-5.43787 l 0.51307,-0.87276 -2.90849,-1.64681 c -1.59968,-0.90574 -3.0209,-1.64398 -3.15829,-1.64053 -0.13738,0.003 -0.61889,0.52806 -1.07001,1.16578 -0.45112,0.63773 -1.44308,1.6533 -2.20434,2.25684 -0.76127,0.60354 -1.49633,1.18972 -1.63347,1.30261 -0.24679,0.20316 3.01411,6.13237 3.37657,6.13953 0.10346,0.002 0.96474,-0.56801 1.91397,-1.26679 z m -10.25511,-3.58068 c 4.36611,-1.02941 7.94975,-3.87234 9.88581,-7.84249 2.88085,-5.90754 1.55,-12.67771 -3.35991,-17.09214 -7.91897,-7.11985 -20.44066,-3.57961 -23.55034,6.65835 -0.80238,2.64167 -0.65527,6.86449 0.324,9.30024 2.71975,6.76483 9.8423,10.59301 16.70044,8.97604 z m -4.42673,-13.01286 c -0.27462,-0.30346 -0.49932,-0.77279 -0.49932,-1.04295 0,-0.28291 -0.23178,-0.4912 -0.5466,-0.4912 -0.40109,0 -7.94777,-5.16337 -8.81671,-6.0323 -0.0621,-0.0621 1.98612,0.74346 4.55169,1.79022 2.56556,1.04676 4.86712,2.14376 5.11456,2.43779 0.30303,0.36006 0.63886,0.46691 1.0287,0.32728 0.31833,-0.11402 0.85821,-0.10304 1.19973,0.0244 0.42083,0.15704 0.76801,0.0847 1.07727,-0.22461 0.40951,-0.4095 7.85394,-3.68474 7.85394,-3.4554 0,0.16662 -5.8363,4.79558 -6.48222,5.14127 -0.34211,0.18309 -0.6953,0.25961 -0.78487,0.17004 -0.0896,-0.0896 -0.37583,0.26344 -0.63613,0.78445 -0.38118,0.76295 -0.67639,0.96437 -1.517,1.03503 -0.72925,0.0613 -1.19416,-0.0785 -1.54304,-0.46401 z m 2.42841,-0.63113 c 0.64249,-1.20051 -0.60712,-2.37729 -1.70664,-1.60716 -1.10861,0.7765 -0.63439,2.1737 0.73778,2.1737 0.36611,0 0.8021,-0.25494 0.96886,-0.56654 z m 19.19724,8.57564 c 1.0621,-2.39436 1.66144,-4.59989 1.87531,-6.90104 l 0.18493,-1.9898 h -3.55583 -3.55584 l -0.16581,1.10217 c -0.0912,0.6062 -0.43716,2.028 -0.76881,3.15956 -0.9191,3.13596 -1.00931,2.91769 1.93668,4.68647 1.45486,0.87351 2.79247,1.5982 2.97246,1.61042 0.17999,0.0122 0.6646,-0.73828 1.07691,-1.66778 z m -36.59057,-0.316 c 1.49001,-0.86082 2.70904,-1.65438 2.70896,-1.76347 -8e-5,-0.10909 -0.27608,-0.92434 -0.61333,-1.81166 -0.33725,-0.88733 -0.7009,-2.40833 -0.80811,-3.37999 l -0.19493,-1.76667 -3.31202,-0.0832 c -2.6881,-0.0675 -3.34306,-0.002 -3.47679,0.34622 -0.54231,1.41325 1.94588,10.47649 2.777,10.1152 0.11556,-0.0502 1.42921,-0.79565 2.91922,-1.65647 z m 38.5664,-10.05679 c 0,-2.23776 -1.6875,-8.05619 -2.66948,-9.20423 -0.28504,-0.33323 -6.20407,3.02616 -6.08011,3.45082 0.0527,0.18063 0.38034,1.25425 0.72803,2.38581 0.34768,1.13156 0.71364,2.55336 0.81323,3.15956 l 0.18107,1.10217 h 3.51363 3.51363 z m -37.21579,-1.03341 c 0.10561,-0.89849 0.50851,-2.41254 0.89535,-3.36455 l 0.70333,-1.73093 -2.80209,-1.63196 c -1.54115,-0.89757 -2.89974,-1.63195 -3.01908,-1.63195 -0.6459,0 -2.38587,5.25388 -2.79844,8.44998 l -0.19918,1.54304 h 3.51406 3.51406 z m 31.85189,-7.74561 c 1.17198,-0.67514 2.13086,-1.30047 2.13086,-1.38963 0,-0.72858 -4.24119,-5.33582 -6.08354,-6.60862 l -1.234,-0.8525 -1.22969,2.13459 c -0.67634,1.17401 -1.46853,2.53372 -1.76043,3.02158 l -0.53073,0.88702 1.58238,1.39512 c 0.87031,0.76731 1.95328,1.9121 2.4066,2.54397 l 0.82422,1.14885 0.88173,-0.52643 c 0.48496,-0.28953 1.84063,-1.07881 3.0126,-1.75395 z m -28.77826,0.67637 c 0.5392,-0.73267 1.67957,-1.87314 2.53417,-2.53438 l 1.55382,-1.20225 -1.63122,-2.81806 c -0.89716,-1.54993 -1.67402,-2.87336 -1.72635,-2.94096 -0.42001,-0.54259 -6.16449,4.74009 -7.22581,6.64493 l -0.51852,0.93065 2.86982,1.63478 c 1.57841,0.89912 2.93596,1.63087 3.01678,1.6261 0.0808,-0.005 0.58812,-0.60813 1.12731,-1.34081 z m 5.92849,-4.52415 c 0.63477,-0.32384 2.18356,-0.76246 3.44176,-0.97472 l 2.28763,-0.38592 0.0828,-3.43398 0.0828,-3.43396 h -1.05041 c -1.79027,0 -5.42875,0.88156 -7.54623,1.82836 -1.11246,0.49742 -1.98514,0.99115 -1.93928,1.09717 0.22168,0.5125 3.32735,5.8917 3.4016,5.89177 0.0469,4e-5 0.60455,-0.26488 1.23932,-0.58872 z m 15.39748,-2.32097 c 0.90614,-1.60039 1.64753,-2.97678 1.64753,-3.05866 0,-0.0819 -0.9822,-0.55778 -2.18267,-1.05753 -2.32223,-0.96675 -5.72358,-1.79142 -7.38869,-1.79142 h -1.00948 v 3.46963 3.46964 l 2.13086,0.37699 c 1.17198,0.20735 2.65991,0.62011 3.30651,0.91726 0.64661,0.29714 1.32703,0.55007 1.51204,0.56206 0.18501,0.012 1.07776,-1.2876 1.9839,-2.88797 z m -58.59452,42.22051 c 0.48877,-0.52077 0.58489,-0.89551 0.45231,-1.76347 -0.0926,-0.60619 -0.24678,-1.61451 -0.34263,-2.24069 -0.15661,-1.02301 -0.0671,-1.24566 0.88173,-2.19454 0.60262,-0.60262 1.05603,-1.34756 1.05603,-1.73504 0,-0.37345 -0.52905,-1.3831 -1.17565,-2.24365 -1.43333,-1.90758 -1.57871,-3.35555 -0.4667,-4.64834 0.65322,-0.75941 0.87353,-0.82423 2.80272,-0.82465 2.52834,-5.8e-4 2.72946,-0.20731 2.57317,-2.64565 -0.14349,-2.23882 0.19933,-3.48816 1.16576,-4.24835 1.01089,-0.79517 2.02027,-0.75824 4.07165,0.14898 2.34541,1.03726 3.36203,0.89656 4.07522,-0.56398 0.46391,-0.95004 0.57793,-2.0345 0.69532,-6.61302 0.14541,-5.67146 0.0362,-6.08615 -0.93881,-3.56619 -1.82142,4.70737 -7.37244,9.96478 -13.52047,12.80535 -1.22173,0.56447 -2.22134,1.15833 -2.22134,1.31969 0,1.11625 -1.02403,9.66062 -1.62445,13.55414 -0.86082,5.5822 -0.8376,5.08624 -0.26498,5.65885 0.6744,0.6744 2.05381,0.57548 2.78112,-0.19944 z m 101.21317,0 c 0.36956,-0.57532 0.37029,-0.98612 0.006,-3.15955 -0.64325,-3.8335 -1.88639,-13.69331 -1.88639,-14.96174 0,-1.12894 -0.003,-1.13144 -2.51739,-2.33808 -5.85376,-2.80883 -10.61417,-7.19272 -12.91376,-11.89238 l -1.3198,-2.69727 -8.9e-4,4.589 c -10e-4,6.68876 0.53706,8.784 2.25774,8.784 0.38394,0 1.48367,-0.33065 2.44384,-0.73478 2.71505,-1.14275 3.98638,-0.9344 4.88343,0.80031 0.37324,0.72175 0.43927,1.3771 0.29508,2.92853 -0.16553,1.78106 -0.11838,2.06607 0.43297,2.61742 0.52097,0.52097 0.82802,0.58733 1.94358,0.42004 1.6553,-0.24823 2.90748,0.23497 3.48051,1.34309 0.75959,1.46888 0.52769,2.40173 -1.08767,4.37536 -1.15194,1.40744 -1.0933,2.44333 0.22066,3.89772 0.88715,0.98198 1.02921,1.31877 0.88282,2.09301 -0.5356,2.8327 -0.54019,3.12394 -0.0608,3.85564 0.65389,0.99796 2.3217,1.04316 2.94059,0.0797 z m -77.94568,-62.97114 0.0886,-4.26219 -2.71869,5.9e-4 -2.71869,5.9e-4 v 4.26173 4.26172 h 2.63011 2.63011 l 0.0886,-4.26218 z m 6.40769,4.5e-4 v -4.26172 h -2.64521 -2.64521 v 4.26172 4.26173 h 2.64521 2.64521 z m 6.46606,0 v -4.26172 h -2.49825 -2.49825 v 4.26172 4.26173 h 2.49825 2.49825 z m 5.87825,0 v -4.26172 h -2.49826 -2.49825 v 4.26172 4.26173 h 2.49825 2.49826 z m 6.17216,4.09245 c 0,-0.0931 -0.57183,-0.91973 -1.27072,-1.83695 -0.6989,-0.91722 -1.35779,-1.81646 -1.4642,-1.99832 -0.10641,-0.18185 0.46541,-1.20101 1.27072,-2.2648 0.80531,-1.06379 1.4642,-2.00615 1.4642,-2.09413 0,-0.088 -1.12422,-0.15997 -2.49826,-0.15997 h -2.49825 v 4.26172 4.26173 h 2.49825 c 1.37404,0 2.49826,-0.0762 2.49826,-0.16928 z m 7.05389,-4.09245 v -4.26172 h -2.49825 c -1.37404,0 -2.49826,0.072 -2.49826,0.15997 0,0.088 0.65889,1.03034 1.4642,2.09413 0.80531,1.06379 1.37713,2.08295 1.27072,2.2648 -0.10641,0.18186 -0.7653,1.0811 -1.4642,1.99832 -0.69889,0.91722 -1.27072,1.74385 -1.27072,1.83695 0,0.0931 1.12422,0.16928 2.49826,0.16928 h 2.49825 z m 6.46607,0 v -4.26172 h -2.64521 -2.64521 v 4.26172 4.26173 h 2.64521 2.64521 z m 6.17215,0 v -4.26172 h -2.49825 -2.49825 v 4.26172 4.26173 h 2.49825 2.49825 z m 6.17216,0 v -4.26172 h -2.49826 -2.49825 v 4.26172 4.26173 h 2.49825 2.49826 z m 6.46606,0 v -4.26172 h -2.64521 -2.6452 v 4.26172 4.26173 h 2.6452 2.64521 z m -30.01435,1.77609 c 0.66603,-0.88215 1.21096,-1.68139 1.21096,-1.77609 0,-0.18 -2.3652,-3.37999 -2.49825,-3.37999 -0.13305,0 -2.49825,3.19999 -2.49825,3.37999 0,0.18001 2.3652,3.37999 2.49825,3.37999 0.042,0 0.62126,-0.72175 1.28729,-1.6039 z m 29.55633,-11.54867 c -0.11352,-0.92949 -0.48738,-3.74003 -0.8308,-6.24563 l -0.62439,-4.55564 -10.37983,-0.0773 c -9.6743,-0.072 -10.37316,-0.11196 -10.28167,-0.58782 0.0893,-0.4646 0.71287,-0.51767 6.92568,-0.58945 l 6.82752,-0.0789 -0.8128,-1.12203 c -0.79769,-1.10119 -1.34746,-2.69309 -2.85686,-8.27233 -1.63787,-6.054137 -3.39755,-8.454847 -8.90913,-12.154633 -1.65069,-1.108069 -3.52834,-2.629065 -4.17255,-3.37999 -1.47796,-1.722784 -3.10334,-4.787726 -3.62686,-6.839065 l -0.40326,-1.580146 -1.80455,-0.0875 c -1.59255,-0.07722 -1.80455,-0.02351 -1.80455,0.457277 0,1.07452 -1.24516,4.202274 -2.35895,5.925525 -1.48585,2.298907 -3.07985,3.815103 -6.03813,5.743402 -5.84588,3.810543 -6.87492,5.484693 -9.67234,15.73599 -0.41907,1.53569 -1.14854,3.4204 -1.62105,4.18825 l -0.85911,1.39608 h 7.62958 c 4.19627,0 7.62958,0.0553 7.62958,0.12292 0,0.0676 0.0803,0.33212 0.1784,0.58782 0.16078,0.41899 -0.94237,0.46491 -11.16866,0.46491 -6.24089,0 -11.34776,0.0992 -11.34861,0.22043 -8.8e-4,0.12124 -0.33081,2.66725 -0.73324,5.65781 -0.40242,2.99056 -0.73238,5.73496 -0.73323,6.09868 l -0.002,0.6613 h 31.02888 31.02889 z m -56.12007,-0.49005 c -0.48496,-0.21647 -1.2724,-0.80875 -1.74987,-1.3162 -0.73366,-0.77972 -0.88409,-1.20637 -0.97117,-2.75448 -0.11962,-2.12656 0.46726,-3.36239 2.05705,-4.3317 1.46615,-0.89392 4.02458,-0.81191 5.18708,0.16626 1.01703,0.85577 1.39628,2.2415 0.94111,3.43868 -0.39601,1.04158 -1.98171,2.01656 -3.1129,1.91398 -1.23886,-0.11234 -1.14474,-0.8838 0.13988,-1.14653 1.01337,-0.20726 2.06446,-1.15704 2.06446,-1.86547 0,-0.20277 -0.28563,-0.73179 -0.63473,-1.17559 -0.58477,-0.74342 -0.76215,-0.79636 -2.25371,-0.67267 -1.35967,0.11276 -1.75231,0.28348 -2.45136,1.06584 -1.49795,1.6765 -0.96191,4.49021 1.03607,5.43831 2.8792,1.36627 6.32132,-0.10413 8.01507,-3.42388 1.41189,-2.76729 3.6336,-4.33073 6.13471,-4.31707 1.13548,0.006 3.05625,0.89511 3.86806,1.79009 1.25719,1.38597 1.43913,3.89008 0.42088,5.7927 -0.61687,1.15263 -2.05362,1.812 -3.95094,1.81321 -1.56417,8.8e-4 -1.80959,-0.0891 -2.71868,-0.9982 -0.77409,-0.7741 -0.99931,-1.24286 -0.99931,-2.08 0,-1.42543 1.36465,-2.88375 2.56892,-2.74526 0.93983,0.10808 1.00585,0.54772 0.14814,0.98648 -1.67741,0.85809 -1.92519,1.62569 -0.93225,2.88801 0.5131,0.6523 0.84109,0.77442 2.07999,0.77442 1.23378,0 1.60931,-0.13847 2.32997,-0.85913 0.73864,-0.73864 0.85913,-1.08299 0.85913,-2.45533 0,-1.27425 -0.14124,-1.74861 -0.70021,-2.35176 -1.00656,-1.08608 -2.81798,-1.5714 -4.2565,-1.14041 -1.66122,0.49771 -2.54004,1.31239 -3.86735,3.58505 -1.77637,3.04157 -3.89938,4.40735 -6.81732,4.38572 -0.85387,-0.006 -1.94927,-0.18861 -2.43422,-0.40507 z m 33.1729,-0.14716 c -0.98905,-0.6031 -1.87125,-1.68452 -1.87125,-2.29383 0,-0.64717 1.0584,-0.40896 1.45219,0.32685 0.46472,0.86834 1.48579,1.35507 2.84269,1.35507 1.3309,0 2.12858,-0.43748 2.47921,-1.35972 0.36898,-0.97049 -0.10171,-1.83197 -1.21253,-2.21921 -1.15169,-0.40148 -1.12847,-1.12367 0.0361,-1.12367 1.03664,0 2.21591,1.028 2.50623,2.18474 0.24402,0.97224 -0.32867,2.37016 -1.27641,3.11564 -0.99978,0.78644 -3.67718,0.79407 -4.95626,0.0141 z m 11.77079,-0.0153 c -1.56273,-0.79403 -2.64111,-1.94452 -4.0883,-4.36167 -1.45975,-2.43813 -3.05721,-3.42508 -5.1154,-3.16045 -0.71113,0.0914 -1.46583,0.30973 -1.67713,0.48508 -0.45945,0.38132 -0.99774,0.11216 -0.99774,-0.49889 0,-0.56416 1.73671,-1.29026 3.08608,-1.29026 2.17245,0 4.60025,1.63832 5.75885,3.88616 1.41804,2.75122 3.65025,4.34338 6.08942,4.34338 2.60296,0 4.30201,-1.70261 4.06736,-4.07589 -0.18319,-1.85289 -1.16739,-2.74176 -3.22471,-2.91237 -1.34637,-0.11165 -1.70116,-0.0337 -2.22343,0.48858 -1.2283,1.2283 -0.62182,2.87173 1.16521,3.15748 0.8712,0.13931 1.15659,0.313 1.08989,0.66329 -0.21796,1.14457 -3.09004,0.35423 -3.71754,-1.02299 -0.61723,-1.35467 -0.41025,-2.45343 0.66466,-3.52834 0.8876,-0.8876 1.17507,-0.99925 2.57173,-0.99885 2.86444,8.8e-4 4.63089,1.45935 4.87765,4.02733 0.17807,1.85323 -0.43255,3.29844 -1.85064,4.38007 -1.50387,1.14705 -4.64275,1.34983 -6.47596,0.41835 z"
               style="fill:#ffffff;stroke-width:0.29391214" />
            <path
               inkscape:connector-curvature="0"
               id="path4067"
               d="m 252.67025,113.25019 c -0.55394,-0.31001 -0.88467,-1.20987 -0.88467,-2.4071 0,-0.97448 0.0677,-1.20353 0.46465,-1.57138 0.5048,-0.46783 2.83818,-1.23686 3.74999,-1.2359 1.13357,0.001 1.8628,-1.04712 1.03614,-1.48954 -0.19903,-0.10652 -0.73694,-0.19367 -1.19535,-0.19367 -0.54187,0 -0.98799,-0.12512 -1.27514,-0.35764 -0.38199,-0.30932 -0.44168,-0.52158 -0.44168,-1.57062 0,-1.48626 0.30332,-1.89421 1.61803,-2.17617 1.18005,-0.25307 2.88391,-0.25551 3.35237,-0.005 0.19917,0.1066 0.56915,0.60233 0.82216,1.10164 0.51387,1.01406 1.09013,1.3238 2.46294,1.3238 0.65147,0 0.868,-0.089 1.10821,-0.45563 0.1642,-0.2506 0.27138,-0.68929 0.23818,-0.97487 -0.0512,-0.44017 -0.17432,-0.54203 -0.80872,-0.66895 -0.84377,-0.16881 -1.40317,-0.71914 -1.40317,-1.38041 0,-0.24474 0.16526,-0.87993 0.36725,-1.411508 0.20199,-0.53159 0.3233,-1.03763 0.26959,-1.12454 -0.0537,-0.0869 -0.40711,-0.15802 -0.78532,-0.15802 -0.6103,0 -0.82512,0.14733 -1.9095,1.30962 -0.73433,0.787108 -1.37281,1.309618 -1.60025,1.309618 -0.62489,0 -2.02563,-0.80762 -2.31602,-1.335328 -0.40168,-0.72997 -0.0484,-1.65459 1.31249,-3.43543 1.81134,-2.37022 1.81741,-2.39197 1.1271,-4.03497 -0.77381,-1.84172 -0.76422,-2.59964 0.044,-3.4816 0.4794,-0.52312 0.81773,-0.7081 1.44993,-0.79276 0.75441,-0.10102 0.82527,-0.156 0.83225,-0.64557 0.005,-0.38395 0.14719,-0.60827 0.50164,-0.79398 0.27172,-0.14237 0.54795,-0.42875 0.61386,-0.63642 0.11631,-0.366442 0.13622,-0.367892 0.67568,-0.0492 0.5924,0.34995 1.12986,1.02978 1.29615,1.63949 0.0677,0.24832 0.31694,0.40812 0.74835,0.47985 0.86096,0.14316 1.37112,0.43721 1.74286,1.00455 0.45868,0.70005 0.37472,1.63904 -0.28766,3.21703 l -0.59479,1.41696 1.13376,1.05769 c 0.62356,0.58173 1.3212,1.42985 1.55029,1.8847 0.37292,0.7404 0.39267,0.90692 0.18855,1.59025 -0.1254,0.41979 -0.387,1.07561 -0.58133,1.45738 -0.44544,0.875068 -0.44913,1.499798 -0.0112,1.896118 0.45943,0.41578 0.75342,0.39199 1.93112,-0.15627 2.29357,-1.06771 3.73578,-0.21077 3.47902,2.06719 -0.0658,0.58405 -0.3321,1.12911 -0.95891,1.96296 -1.1113,1.47835 -1.20807,1.8798 -0.70348,2.91838 0.71027,1.46197 0.45199,2.81414 -0.63617,3.33051 -1.38927,0.65925 -2.33958,0.15643 -3.42682,-1.81315 -0.88059,-1.59525 -1.41481,-2.22471 -2.25819,-2.66084 -0.72008,-0.37237 -0.66553,-0.7343 0.12251,-0.81273 0.7881,-0.0784 1.72282,0.77258 2.7105,2.46781 1.05992,1.8192 1.2243,1.98602 1.95699,1.98602 0.9419,0 1.1339,-0.56855 0.63514,-1.8808 -0.51731,-1.36107 -0.50167,-2.39107 0.0485,-3.19125 0.23979,-0.34879 0.66074,-0.96161 0.93544,-1.36184 0.57635,-0.83971 0.67261,-1.98267 0.20001,-2.3749 -0.25102,-0.20833 -0.44014,-0.19475 -1.16931,0.0839 -1.71381,0.65496 -2.25164,0.74571 -3.03266,0.51171 -1.38602,-0.41526 -1.58977,-1.57313 -0.63695,-3.619708 0.61774,-1.32686 0.58493,-1.79971 -0.18747,-2.7021 -1.03271,-1.20648 -1.55705,-1.36754 -4.45203,-1.36754 h -2.5184 l -1.10155,1.40108 c -1.93804,2.46503 -2.11374,3.12853 -0.93929,3.54701 0.45816,0.163248 0.59032,0.0788 1.66442,-1.06309 1.25217,-1.33124 1.90362,-1.60993 3.25187,-1.39114 1.32324,0.21473 1.47136,0.74736 0.7212,2.593498 -0.25724,0.63309 -0.46772,1.22075 -0.46772,1.30591 0,0.0851 0.33676,0.15483 0.74835,0.15483 1.15516,0 1.49737,0.46072 1.49385,2.0112 -0.002,0.69457 -0.0826,1.38914 -0.18002,1.54348 -0.133,0.21068 -0.63695,0.29641 -2.02167,0.3439 -2.40789,0.0826 -3.11186,-0.17914 -3.40443,-1.26568 -0.29234,-1.08566 -0.85731,-1.41195 -2.01488,-1.1637 -1.77647,0.38099 -1.91766,0.48437 -1.91766,1.40423 0,0.9129 0.19464,1.04788 1.51825,1.05288 0.93921,0.004 1.63258,0.59295 1.77967,1.51281 0.0646,0.40414 0.16988,0.73328 0.2339,0.7314 0.064,-0.002 0.48689,-0.25444 0.93969,-0.56126 0.95946,-0.65015 2.14702,-0.78418 2.04185,-0.23046 -0.0342,0.18007 -0.48128,0.53788 -0.9935,0.79513 l -0.93131,0.46772 -0.2216,1.5662 c -0.12188,0.86141 -0.30507,1.64967 -0.40709,1.75169 -0.38389,0.38389 -0.59226,-0.0982 -0.59226,-1.37037 0,-0.97355 -0.0696,-1.33116 -0.27431,-1.40971 -0.15086,-0.0579 -1.40527,0.16048 -2.78756,0.48528 -2.17268,0.51051 -2.52814,0.646 -2.62302,0.9998 -0.1923,0.71707 -0.12349,1.54241 0.15982,1.91698 0.29547,0.39065 0.37778,1.12662 0.14227,1.27217 -0.0794,0.0491 -0.28985,0.008 -0.46772,-0.0918 z m 8.17383,-20.294438 c 0.22575,-0.0866 0.29545,-0.38612 0.29387,-1.26285 -10e-4,-0.63211 -0.0542,-1.465 -0.11802,-1.85087 -0.11032,-0.66744 -0.1506,-0.70158 -0.82766,-0.70158 -1.79953,0 -2.13773,0.60137 -1.32044,2.3479 0.62318,1.33168 1.20256,1.76276 1.97225,1.4674 z m 3.25521,-0.30992 c 0.78138,-0.64848 1.26183,-2.76412 0.74508,-3.28088 -0.27782,-0.27781 -1.95317,-0.2978 -2.12158,-0.0253 -0.0677,0.10956 -0.16877,0.86535 -0.22457,1.67954 -0.11722,1.71015 0.0801,2.1523 0.87193,1.95357 0.2643,-0.0663 0.59242,-0.21344 0.72914,-0.32691 z"
               style="fill:#ffffff;fill-opacity:1;stroke-width:0.18708867" />
            <path
               inkscape:connector-curvature="0"
               id="path4069"
               d="m 258.81598,122.13093 c -0.3888,-0.82341 -0.5753,-1.27608 -1.49495,-3.6285 -1.09323,-2.7964 -1.68323,-4.15551 -2.11575,-4.87378 -0.17653,-0.29315 -0.297,-0.55695 -0.26773,-0.58623 0.0821,-0.0821 3.3297,-0.0688 3.62985,0.0149 0.21225,0.0592 0.244,0.0999 0.15831,0.20316 -0.0589,0.071 -0.26984,0.15663 -0.46865,0.19022 -0.1988,0.0336 -0.38596,0.12492 -0.4159,0.20295 -0.0299,0.078 0.0111,0.39483 0.0912,0.70398 0.14903,0.57512 1.69099,4.65273 1.80462,4.77217 0.0887,0.0932 1.70886,-4.58321 1.7672,-5.10083 0.0451,-0.40007 0.0298,-0.43745 -0.24814,-0.60648 l -0.29619,-0.18012 0.39297,-0.0628 c 0.83007,-0.13274 4.27483,-0.23545 5.24979,-0.15654 0.82874,0.0671 1.07875,0.12494 1.43049,0.33107 1.496,0.87671 1.57059,3.26768 0.12642,4.05253 -0.44582,0.24229 -0.46498,0.26876 -0.41779,0.57734 0.0508,0.3325 0.60192,1.28243 1.86248,3.21047 l 0.72032,1.10172 -1.32004,-0.026 -1.32004,-0.026 -0.88194,-1.54531 c -0.88296,-1.54709 -1.48064,-2.43109 -1.6899,-2.49944 -0.17199,-0.0562 -0.26303,0.56063 -0.25873,1.75291 0.004,1.19834 0.107,1.51688 0.60274,1.86988 0.15513,0.11046 0.28205,0.24006 0.28205,0.28801 0,0.051 -0.795,0.0872 -1.91766,0.0872 -1.05471,0 -1.91766,-0.0342 -1.91766,-0.076 0,-0.0418 0.12559,-0.1688 0.27909,-0.28229 0.60653,-0.44842 0.60958,-0.46888 0.60958,-4.08511 0,-1.80073 -0.0335,-3.43191 -0.0744,-3.62484 -0.18068,-0.85197 -0.40016,-0.38882 -2.02801,4.27965 -0.91674,2.6291 -1.32659,3.69104 -1.54476,4.00251 -0.10578,0.15103 -0.13817,0.12341 -0.32887,-0.28047 z m 7.57432,-4.96165 c 0.47773,-0.241 0.68291,-0.66763 0.73243,-1.52298 0.0366,-0.6325 0.0114,-0.7921 -0.19702,-1.24735 -0.26494,-0.57871 -0.67283,-0.90021 -1.14284,-0.90079 -0.4396,-5.3e-4 -0.67083,0.22117 -0.78477,0.75246 -0.14139,0.65927 -0.13342,2.82591 0.0109,2.97026 0.16735,0.16735 1.0096,0.13589 1.38127,-0.0516 z"
               style="fill:#ffffff;fill-opacity:1;stroke-width:0.09354433" />
          </g>
        </g>
      </g>
    </g>
  </g>
</svg>
